<?xml version="1.0" encoding="UTF-8" standalone="no"?><svg xmlns="http://www.w3.org/2000/svg" xmlns:xlink="http://www.w3.org/1999/xlink" contentScriptType="application/ecmascript" contentStyleType="text/css" height="1260px" preserveAspectRatio="none" style="width:1011px;height:1260px;" version="1.1" viewBox="0 0 1011 1260" width="1011px" zoomAndPan="magnify"><defs><filter height="300%" id="f3lgscitrkve6" width="300%" x="-1" y="-1"><feGaussianBlur result="blurOut" stdDeviation="2.0"/><feColorMatrix in="blurOut" result="blurOut2" type="matrix" values="0 0 0 0 0 0 0 0 0 0 0 0 0 0 0 0 0 0 .4 0"/><feOffset dx="4.0" dy="4.0" in="blurOut2" result="blurOut3"/><feBlend in="SourceGraphic" in2="blurOut3" mode="normal"/></filter></defs><g><!--MD5=[df9c410a25278e6f61a545919ef9c40f]
cluster Eleições--><polygon fill="#FFFFFF" filter="url(#f3lgscitrkve6)" points="16,35.62,87,35.62,94,57.9169,488,57.9169,488,1253.62,16,1253.62,16,35.62" style="stroke:#000000;stroke-width:1.5;"/><line style="stroke:#000000;stroke-width:1.5;" x1="16" x2="94" y1="57.9169" y2="57.9169"/><text fill="#000000" font-family="sans-serif" font-size="14" font-weight="bold" lengthAdjust="spacing" textLength="65" x="20" y="50.6151">Eleições</text><!--MD5=[b4147e90ba76eb07f6071751108ef758]
cluster Entrada--><polygon fill="#FFFFFF" filter="url(#f3lgscitrkve6)" points="512,124.62,582,124.62,589,146.9169,686,146.9169,686,296.62,512,296.62,512,124.62" style="stroke:#000000;stroke-width:1.5;"/><line style="stroke:#000000;stroke-width:1.5;" x1="512" x2="589" y1="146.9169" y2="146.9169"/><text fill="#000000" font-family="sans-serif" font-size="14" font-weight="bold" lengthAdjust="spacing" textLength="64" x="516" y="139.6151">Entrada</text><!--MD5=[8d7c40f2144465388d56c5b562715a92]
cluster Saida--><polygon fill="#FFFFFF" filter="url(#f3lgscitrkve6)" points="710,92.62,761,92.62,768,114.9169,994,114.9169,994,328.62,710,328.62,710,92.62" style="stroke:#000000;stroke-width:1.5;"/><line style="stroke:#000000;stroke-width:1.5;" x1="710" x2="768" y1="114.9169" y2="114.9169"/><text fill="#000000" font-family="sans-serif" font-size="14" font-weight="bold" lengthAdjust="spacing" textLength="45" x="714" y="107.6151">Saida</text><!--MD5=[2cff5cdbba869313d223bfe4d1351f5e]
class Eleição--><rect codeLine="129" fill="#FEFECE" filter="url(#f3lgscitrkve6)" height="299.2891" id="Eleição" style="stroke:#A80036;stroke-width:1.5;" width="180" x="171" y="70.62"/><ellipse cx="235.25" cy="86.62" fill="#ADD1B2" rx="11" ry="11" style="stroke:#A80036;stroke-width:1.0;"/><path d="M237.5938,82.2919 C236.6563,81.8544 236.0625,81.7137 235.1875,81.7137 C232.5625,81.7137 230.5625,83.7919 230.5625,86.5106 L230.5625,87.6356 C230.5625,90.2137 232.6719,92.1044 235.5625,92.1044 C236.7813,92.1044 237.9375,91.8075 238.6875,91.2606 C239.2656,90.8544 239.5938,90.4012 239.5938,90.0106 C239.5938,89.5575 239.2031,89.1669 238.7344,89.1669 C238.5156,89.1669 238.3125,89.245 238.125,89.4325 C237.6719,89.9169 237.6719,89.9169 237.4844,90.0106 C237.0625,90.2762 236.375,90.4012 235.6094,90.4012 C233.5625,90.4012 232.2656,89.3075 232.2656,87.6044 L232.2656,86.5106 C232.2656,84.7294 233.5156,83.4169 235.25,83.4169 C235.8281,83.4169 236.4375,83.5731 236.9063,83.8231 C237.3906,84.1044 237.5625,84.3231 237.6563,84.7294 C237.7188,85.1356 237.75,85.2606 237.8906,85.3856 C238.0313,85.5262 238.2656,85.6356 238.4844,85.6356 C238.75,85.6356 239.0156,85.495 239.1875,85.2762 C239.2969,85.12 239.3281,84.9325 239.3281,84.5106 L239.3281,83.0887 C239.3281,82.6512 239.3125,82.5262 239.2188,82.37 C239.0625,82.1044 238.7813,81.9637 238.4844,81.9637 C238.1875,81.9637 237.9844,82.0575 237.7656,82.37 L237.5938,82.2919 Z " fill="#000000"/><text fill="#000000" font-family="sans-serif" font-size="12" lengthAdjust="spacing" textLength="43" x="255.75" y="90.7743">Eleição</text><line style="stroke:#A80036;stroke-width:1.5;" x1="172" x2="350" y1="102.62" y2="102.62"/><rect fill="none" height="6" style="stroke:#C82930;stroke-width:1.0;" width="6" x="179" y="127.4247"/><text fill="#000000" font-family="sans-serif" font-size="11" lengthAdjust="spacing" textLength="133" x="191" y="133.6351">int total_votos_legenda</text><rect fill="none" height="6" style="stroke:#C82930;stroke-width:1.0;" width="6" x="179" y="140.2294"/><text fill="#000000" font-family="sans-serif" font-size="11" lengthAdjust="spacing" textLength="137" x="191" y="146.4398">int total_votos_nominais</text><rect fill="none" height="6" style="stroke:#C82930;stroke-width:1.0;" width="6" x="179" y="153.0341"/><text fill="#000000" font-family="sans-serif" font-size="11" lengthAdjust="spacing" textLength="86" x="191" y="159.2445">LocalDate data</text><line style="stroke:#A80036;stroke-width:1.5;" x1="172" x2="234.5" y1="117.0223" y2="117.0223"/><text fill="#000000" font-family="sans-serif" font-size="11" lengthAdjust="spacing" textLength="53" x="234.5" y="120.3304">Atribuitos</text><line style="stroke:#A80036;stroke-width:1.5;" x1="287.5" x2="350" y1="117.0223" y2="117.0223"/><ellipse cx="182" cy="185.6434" fill="#84BE84" rx="3" ry="3" style="stroke:#038048;stroke-width:1.0;"/><text fill="#000000" font-family="sans-serif" font-size="11" lengthAdjust="spacing" textLength="49" x="191" y="188.8539">Eleicao()</text><ellipse cx="182" cy="198.4481" fill="#84BE84" rx="3" ry="3" style="stroke:#038048;stroke-width:1.0;"/><text fill="#000000" font-family="sans-serif" font-size="11" lengthAdjust="spacing" textLength="64" x="191" y="201.6586">qtdEleitos()</text><line style="stroke:#A80036;stroke-width:1.5;" x1="172" x2="237" y1="172.2411" y2="172.2411"/><text fill="#000000" font-family="sans-serif" font-size="11" lengthAdjust="spacing" textLength="48" x="237" y="175.5492">Métodos</text><line style="stroke:#A80036;stroke-width:1.5;" x1="285" x2="350" y1="172.2411" y2="172.2411"/><ellipse cx="182" cy="228.0575" fill="#84BE84" rx="3" ry="3" style="stroke:#038048;stroke-width:1.0;"/><text fill="#000000" font-family="sans-serif" font-size="11" lengthAdjust="spacing" textLength="65" x="191" y="231.2679">getEleitos()</text><ellipse cx="182" cy="240.8622" fill="#84BE84" rx="3" ry="3" style="stroke:#038048;stroke-width:1.0;"/><text fill="#000000" font-family="sans-serif" font-size="11" lengthAdjust="spacing" textLength="71" x="191" y="244.0726">getPartidos()</text><ellipse cx="182" cy="253.6669" fill="#84BE84" rx="3" ry="3" style="stroke:#038048;stroke-width:1.0;"/><text fill="#000000" font-family="sans-serif" font-size="11" lengthAdjust="spacing" textLength="90" x="191" y="256.8773">getCandidatos()</text><ellipse cx="182" cy="266.4716" fill="#84BE84" rx="3" ry="3" style="stroke:#038048;stroke-width:1.0;"/><text fill="#000000" font-family="sans-serif" font-size="11" lengthAdjust="spacing" textLength="148" x="191" y="269.682">get_total_votos_legenda()</text><ellipse cx="182" cy="279.2762" fill="#84BE84" rx="3" ry="3" style="stroke:#038048;stroke-width:1.0;"/><text fill="#000000" font-family="sans-serif" font-size="11" lengthAdjust="spacing" textLength="152" x="191" y="282.4867">get_total_votos_nominais()</text><line style="stroke:#A80036;stroke-width:1.0;stroke-dasharray:1.0,2.0;" x1="172" x2="239.5" y1="214.6552" y2="214.6552"/><text fill="#000000" font-family="sans-serif" font-size="11" lengthAdjust="spacing" textLength="43" x="239.5" y="217.9633">Getters</text><line style="stroke:#A80036;stroke-width:1.0;stroke-dasharray:1.0,2.0;" x1="282.5" x2="350" y1="214.6552" y2="214.6552"/><ellipse cx="182" cy="308.8856" fill="#84BE84" rx="3" ry="3" style="stroke:#038048;stroke-width:1.0;"/><text fill="#000000" font-family="sans-serif" font-size="11" lengthAdjust="spacing" textLength="87" x="191" y="312.0961">adicionaEleito()</text><ellipse cx="182" cy="321.6903" fill="#84BE84" rx="3" ry="3" style="stroke:#038048;stroke-width:1.0;"/><text fill="#000000" font-family="sans-serif" font-size="11" lengthAdjust="spacing" textLength="108" x="191" y="324.9008">addPartidoEleicao()</text><ellipse cx="182" cy="334.495" fill="#84BE84" rx="3" ry="3" style="stroke:#038048;stroke-width:1.0;"/><text fill="#000000" font-family="sans-serif" font-size="11" lengthAdjust="spacing" textLength="127" x="191" y="337.7054">addCandidatoEleicao()</text><ellipse cx="182" cy="347.2997" fill="#84BE84" rx="3" ry="3" style="stroke:#038048;stroke-width:1.0;"/><text fill="#000000" font-family="sans-serif" font-size="11" lengthAdjust="spacing" textLength="150" x="191" y="350.5101">add_total_votos_legenda()</text><ellipse cx="182" cy="360.1044" fill="#84BE84" rx="3" ry="3" style="stroke:#038048;stroke-width:1.0;"/><text fill="#000000" font-family="sans-serif" font-size="11" lengthAdjust="spacing" textLength="154" x="191" y="363.3148">add_total_votos_nominais()</text><line style="stroke:#A80036;stroke-width:1.0;stroke-dasharray:1.0,2.0;" x1="172" x2="240" y1="295.4833" y2="295.4833"/><text fill="#000000" font-family="sans-serif" font-size="11" lengthAdjust="spacing" textLength="42" x="240" y="298.7914">Setters</text><line style="stroke:#A80036;stroke-width:1.0;stroke-dasharray:1.0,2.0;" x1="282" x2="350" y1="295.4833" y2="295.4833"/><!--MD5=[eca71ce118dab17e2c498309d5e14a6d]
class Partido--><rect codeLine="127" fill="#FEFECE" filter="url(#f3lgscitrkve6)" height="358.5078" id="Partido" style="stroke:#A80036;stroke-width:1.5;" width="163" x="184.5" y="878.62"/><ellipse cx="241.25" cy="894.62" fill="#ADD1B2" rx="11" ry="11" style="stroke:#A80036;stroke-width:1.0;"/><path d="M243.5938,890.2919 C242.6563,889.8544 242.0625,889.7137 241.1875,889.7137 C238.5625,889.7137 236.5625,891.7919 236.5625,894.5106 L236.5625,895.6356 C236.5625,898.2137 238.6719,900.1044 241.5625,900.1044 C242.7813,900.1044 243.9375,899.8075 244.6875,899.2606 C245.2656,898.8544 245.5938,898.4012 245.5938,898.0106 C245.5938,897.5575 245.2031,897.1669 244.7344,897.1669 C244.5156,897.1669 244.3125,897.245 244.125,897.4325 C243.6719,897.9169 243.6719,897.9169 243.4844,898.0106 C243.0625,898.2762 242.375,898.4012 241.6094,898.4012 C239.5625,898.4012 238.2656,897.3075 238.2656,895.6044 L238.2656,894.5106 C238.2656,892.7294 239.5156,891.4169 241.25,891.4169 C241.8281,891.4169 242.4375,891.5731 242.9063,891.8231 C243.3906,892.1044 243.5625,892.3231 243.6563,892.7294 C243.7188,893.1356 243.75,893.2606 243.8906,893.3856 C244.0313,893.5262 244.2656,893.6356 244.4844,893.6356 C244.75,893.6356 245.0156,893.495 245.1875,893.2762 C245.2969,893.12 245.3281,892.9325 245.3281,892.5106 L245.3281,891.0887 C245.3281,890.6512 245.3125,890.5262 245.2188,890.37 C245.0625,890.1044 244.7813,889.9637 244.4844,889.9637 C244.1875,889.9637 243.9844,890.0575 243.7656,890.37 L243.5938,890.2919 Z " fill="#000000"/><text fill="#000000" font-family="sans-serif" font-size="12" lengthAdjust="spacing" textLength="41" x="261.75" y="898.7743">Partido</text><line style="stroke:#A80036;stroke-width:1.5;" x1="185.5" x2="346.5" y1="910.62" y2="910.62"/><rect fill="none" height="6" style="stroke:#C82930;stroke-width:1.0;" width="6" x="192.5" y="935.4247"/><text fill="#000000" font-family="sans-serif" font-size="11" lengthAdjust="spacing" textLength="107" x="204.5" y="941.6351">int numero_partido</text><rect fill="none" height="6" style="stroke:#C82930;stroke-width:1.0;" width="6" x="192.5" y="948.2294"/><text fill="#000000" font-family="sans-serif" font-size="11" lengthAdjust="spacing" textLength="137" x="204.5" y="954.4398">int qtdCandidatosEleitos</text><rect fill="none" height="6" style="stroke:#C82930;stroke-width:1.0;" width="6" x="192.5" y="961.0341"/><text fill="#000000" font-family="sans-serif" font-size="11" lengthAdjust="spacing" textLength="102" x="204.5" y="967.2445">int votos_legenda</text><rect fill="none" height="6" style="stroke:#C82930;stroke-width:1.0;" width="6" x="192.5" y="973.8387"/><text fill="#000000" font-family="sans-serif" font-size="11" lengthAdjust="spacing" textLength="106" x="204.5" y="980.0492">int votos_nominais</text><rect fill="none" height="6" style="stroke:#C82930;stroke-width:1.0;" width="6" x="192.5" y="986.6434"/><text fill="#000000" font-family="sans-serif" font-size="11" lengthAdjust="spacing" textLength="98" x="204.5" y="992.8539">Str nome_partido</text><rect fill="none" height="6" style="stroke:#C82930;stroke-width:1.0;" width="6" x="192.5" y="999.4481"/><text fill="#000000" font-family="sans-serif" font-size="11" lengthAdjust="spacing" textLength="91" x="204.5" y="1005.6586">Str sigla_partido</text><line style="stroke:#A80036;stroke-width:1.5;" x1="185.5" x2="241" y1="925.0223" y2="925.0223"/><text fill="#000000" font-family="sans-serif" font-size="11" lengthAdjust="spacing" textLength="50" x="241" y="928.3304">Atributos</text><line style="stroke:#A80036;stroke-width:1.5;" x1="291" x2="346.5" y1="925.0223" y2="925.0223"/><ellipse cx="195.5" cy="1032.0575" fill="#84BE84" rx="3" ry="3" style="stroke:#038048;stroke-width:1.0;"/><text fill="#000000" font-family="sans-serif" font-size="11" lengthAdjust="spacing" textLength="46" x="204.5" y="1035.2679">Partido()</text><ellipse cx="195.5" cy="1044.8622" fill="#84BE84" rx="3" ry="3" style="stroke:#038048;stroke-width:1.0;"/><text fill="#000000" font-family="sans-serif" font-size="11" lengthAdjust="spacing" textLength="73" x="204.5" y="1048.0726">votosTotais()</text><line style="stroke:#A80036;stroke-width:1.5;" x1="185.5" x2="242" y1="1018.6552" y2="1018.6552"/><text fill="#000000" font-family="sans-serif" font-size="11" lengthAdjust="spacing" textLength="48" x="242" y="1021.9633">Métodos</text><line style="stroke:#A80036;stroke-width:1.5;" x1="290" x2="346.5" y1="1018.6552" y2="1018.6552"/><ellipse cx="195.5" cy="1074.4716" fill="#84BE84" rx="3" ry="3" style="stroke:#038048;stroke-width:1.0;"/><text fill="#000000" font-family="sans-serif" font-size="11" lengthAdjust="spacing" textLength="90" x="204.5" y="1077.682">getCandidatos()</text><ellipse cx="195.5" cy="1087.2763" fill="#84BE84" rx="3" ry="3" style="stroke:#038048;stroke-width:1.0;"/><text fill="#000000" font-family="sans-serif" font-size="11" lengthAdjust="spacing" textLength="100" x="204.5" y="1090.4867">getSigla_partido()</text><ellipse cx="195.5" cy="1100.0809" fill="#84BE84" rx="3" ry="3" style="stroke:#038048;stroke-width:1.0;"/><text fill="#000000" font-family="sans-serif" font-size="11" lengthAdjust="spacing" textLength="112" x="204.5" y="1103.2914">getVotos_legenda()</text><ellipse cx="195.5" cy="1112.8856" fill="#84BE84" rx="3" ry="3" style="stroke:#038048;stroke-width:1.0;"/><text fill="#000000" font-family="sans-serif" font-size="11" lengthAdjust="spacing" textLength="117" x="204.5" y="1116.0961">getNumero_partido()</text><line style="stroke:#A80036;stroke-width:1.0;stroke-dasharray:1.0,2.0;" x1="185.5" x2="244.5" y1="1061.0692" y2="1061.0692"/><text fill="#000000" font-family="sans-serif" font-size="11" lengthAdjust="spacing" textLength="43" x="244.5" y="1064.3773">Getters</text><line style="stroke:#A80036;stroke-width:1.0;stroke-dasharray:1.0,2.0;" x1="287.5" x2="346.5" y1="1061.0692" y2="1061.0692"/><ellipse cx="195.5" cy="1142.495" fill="#84BE84" rx="3" ry="3" style="stroke:#038048;stroke-width:1.0;"/><text fill="#000000" font-family="sans-serif" font-size="11" lengthAdjust="spacing" textLength="124" x="204.5" y="1145.7054">add_Votos_nominais()</text><ellipse cx="195.5" cy="1155.2997" fill="#84BE84" rx="3" ry="3" style="stroke:#038048;stroke-width:1.0;"/><text fill="#000000" font-family="sans-serif" font-size="11" lengthAdjust="spacing" textLength="130" x="204.5" y="1158.5101">add_CandidatoPartido()</text><line style="stroke:#A80036;stroke-width:1.0;stroke-dasharray:1.0,2.0;" x1="185.5" x2="245" y1="1129.0927" y2="1129.0927"/><text fill="#000000" font-family="sans-serif" font-size="11" lengthAdjust="spacing" textLength="42" x="245" y="1132.4008">Setters</text><line style="stroke:#A80036;stroke-width:1.0;stroke-dasharray:1.0,2.0;" x1="287" x2="346.5" y1="1129.0927" y2="1129.0927"/><ellipse cx="195.5" cy="1184.9091" fill="#84BE84" rx="3" ry="3" style="stroke:#038048;stroke-width:1.0;"/><text fill="#000000" font-family="sans-serif" font-size="11" lengthAdjust="spacing" textLength="72" x="204.5" y="1188.1195">compareTo()</text><line style="stroke:#A80036;stroke-width:1.0;stroke-dasharray:1.0,2.0;" x1="185.5" x2="230.5" y1="1171.5067" y2="1171.5067"/><text fill="#000000" font-family="sans-serif" font-size="11" lengthAdjust="spacing" textLength="71" x="230.5" y="1174.8148">Comparação</text><line style="stroke:#A80036;stroke-width:1.0;stroke-dasharray:1.0,2.0;" x1="301.5" x2="346.5" y1="1171.5067" y2="1171.5067"/><ellipse cx="195.5" cy="1214.5184" fill="#84BE84" rx="3" ry="3" style="stroke:#038048;stroke-width:1.0;"/><text fill="#000000" font-family="sans-serif" font-size="11" lengthAdjust="spacing" textLength="85" x="204.5" y="1217.7289">simplesString()</text><ellipse cx="195.5" cy="1227.3231" fill="#84BE84" rx="3" ry="3" style="stroke:#038048;stroke-width:1.0;"/><text fill="#000000" font-family="sans-serif" font-size="11" lengthAdjust="spacing" textLength="52" x="204.5" y="1230.5336">toString()</text><line style="stroke:#A80036;stroke-width:1.0;stroke-dasharray:1.0,2.0;" x1="185.5" x2="236.5" y1="1201.1161" y2="1201.1161"/><text fill="#000000" font-family="sans-serif" font-size="11" lengthAdjust="spacing" textLength="59" x="236.5" y="1204.4242">Impressão</text><line style="stroke:#A80036;stroke-width:1.0;stroke-dasharray:1.0,2.0;" x1="295.5" x2="346.5" y1="1201.1161" y2="1201.1161"/><!--MD5=[7a4729d26b999f6a4650b01106c103c5]
class Comparable--><rect fill="#FEFECE" filter="url(#f3lgscitrkve6)" height="48" id="Comparable" style="stroke:#A80036;stroke-width:1.5;" width="104" x="32" y="196.12"/><ellipse cx="47" cy="212.12" fill="#B4A7E5" rx="11" ry="11" style="stroke:#A80036;stroke-width:1.0;"/><path d="M47.9531,208.9012 L49.6719,208.9012 C50.0625,208.9012 50.25,208.87 50.375,208.7919 C50.6406,208.6356 50.7813,208.3544 50.7813,208.0575 C50.7813,207.7919 50.6719,207.5262 50.4375,207.3544 C50.2656,207.245 50.125,207.2137 49.6719,207.2137 L44.5313,207.2137 C44.0938,207.2137 43.9688,207.2294 43.8125,207.3231 C43.5625,207.4794 43.4063,207.7762 43.4063,208.0575 C43.4063,208.3387 43.5469,208.5887 43.7656,208.7606 C43.9219,208.87 44.1094,208.9012 44.5313,208.9012 L46.25,208.9012 L46.25,215.4169 L44.5313,215.4169 C44.0938,215.4169 43.9688,215.4325 43.8125,215.5419 C43.5625,215.6981 43.4063,215.9794 43.4063,216.2762 C43.4063,216.5262 43.5469,216.7919 43.7656,216.9481 C43.9219,217.0731 44.125,217.12 44.5313,217.12 L49.6719,217.12 C50.4219,217.12 50.7813,216.8387 50.7813,216.2762 C50.7813,215.995 50.6719,215.745 50.4375,215.5731 C50.2656,215.4481 50.125,215.4169 49.6719,215.4169 L47.9531,215.4169 L47.9531,208.9012 Z " fill="#000000"/><text fill="#000000" font-family="sans-serif" font-size="12" font-style="italic" lengthAdjust="spacing" textLength="72" x="61" y="216.2743">Comparable</text><line style="stroke:#A80036;stroke-width:1.5;" x1="33" x2="135" y1="228.12" y2="228.12"/><line style="stroke:#A80036;stroke-width:1.5;" x1="33" x2="135" y1="236.12" y2="236.12"/><!--MD5=[f884fc27599339af8f59e71707b66ff3]
class Candidato--><rect codeLine="128" fill="#FEFECE" filter="url(#f3lgscitrkve6)" height="354.5078" id="Candidato" style="stroke:#A80036;stroke-width:1.5;" width="124" x="124" y="446.62"/><ellipse cx="153.4" cy="462.62" fill="#ADD1B2" rx="11" ry="11" style="stroke:#A80036;stroke-width:1.0;"/><path d="M155.7438,458.2919 C154.8063,457.8544 154.2125,457.7137 153.3375,457.7137 C150.7125,457.7137 148.7125,459.7919 148.7125,462.5106 L148.7125,463.6356 C148.7125,466.2137 150.8219,468.1044 153.7125,468.1044 C154.9313,468.1044 156.0875,467.8075 156.8375,467.2606 C157.4156,466.8544 157.7438,466.4012 157.7438,466.0106 C157.7438,465.5575 157.3531,465.1669 156.8844,465.1669 C156.6656,465.1669 156.4625,465.245 156.275,465.4325 C155.8219,465.9169 155.8219,465.9169 155.6344,466.0106 C155.2125,466.2762 154.525,466.4012 153.7594,466.4012 C151.7125,466.4012 150.4156,465.3075 150.4156,463.6044 L150.4156,462.5106 C150.4156,460.7294 151.6656,459.4169 153.4,459.4169 C153.9781,459.4169 154.5875,459.5731 155.0563,459.8231 C155.5406,460.1044 155.7125,460.3231 155.8063,460.7294 C155.8688,461.1356 155.9,461.2606 156.0406,461.3856 C156.1813,461.5262 156.4156,461.6356 156.6344,461.6356 C156.9,461.6356 157.1656,461.495 157.3375,461.2762 C157.4469,461.12 157.4781,460.9325 157.4781,460.5106 L157.4781,459.0887 C157.4781,458.6512 157.4625,458.5262 157.3688,458.37 C157.2125,458.1044 156.9313,457.9637 156.6344,457.9637 C156.3375,457.9637 156.1344,458.0575 155.9156,458.37 L155.7438,458.2919 Z " fill="#000000"/><text fill="#000000" font-family="sans-serif" font-size="12" lengthAdjust="spacing" textLength="60" x="170.6" y="466.7743">Candidato</text><line style="stroke:#A80036;stroke-width:1.5;" x1="125" x2="247" y1="478.62" y2="478.62"/><rect fill="none" height="6" style="stroke:#C82930;stroke-width:1.0;" width="6" x="132" y="503.4247"/><text fill="#000000" font-family="sans-serif" font-size="11" lengthAdjust="spacing" textLength="50" x="144" y="509.6351">int idade</text><rect fill="none" height="6" style="stroke:#C82930;stroke-width:1.0;" width="6" x="132" y="516.2294"/><text fill="#000000" font-family="sans-serif" font-size="11" lengthAdjust="spacing" textLength="62" x="144" y="522.4398">int numero</text><rect fill="none" height="6" style="stroke:#C82930;stroke-width:1.0;" width="6" x="132" y="529.0341"/><text fill="#000000" font-family="sans-serif" font-size="11" lengthAdjust="spacing" textLength="88" x="144" y="535.2445">int num_partido</text><rect fill="none" height="6" style="stroke:#C82930;stroke-width:1.0;" width="6" x="132" y="541.8387"/><text fill="#000000" font-family="sans-serif" font-size="11" lengthAdjust="spacing" textLength="49" x="144" y="548.0492">int votos</text><rect fill="none" height="6" style="stroke:#C82930;stroke-width:1.0;" width="6" x="132" y="554.6434"/><text fill="#000000" font-family="sans-serif" font-size="11" lengthAdjust="spacing" textLength="56" x="144" y="560.8539">char sexo</text><rect fill="none" height="6" style="stroke:#C82930;stroke-width:1.0;" width="6" x="132" y="567.4481"/><text fill="#000000" font-family="sans-serif" font-size="11" lengthAdjust="spacing" textLength="87" x="144" y="573.6586">LocalDate nasc</text><rect fill="none" height="6" style="stroke:#C82930;stroke-width:1.0;" width="6" x="132" y="580.2528"/><text fill="#000000" font-family="sans-serif" font-size="11" lengthAdjust="spacing" textLength="53" x="144" y="586.4633">Str nome</text><rect fill="none" height="6" style="stroke:#C82930;stroke-width:1.0;" width="6" x="132" y="593.0575"/><text fill="#000000" font-family="sans-serif" font-size="11" lengthAdjust="spacing" textLength="84" x="144" y="599.2679">Str nome_urna</text><rect fill="none" height="6" style="stroke:#C82930;stroke-width:1.0;" width="6" x="132" y="605.8622"/><text fill="#000000" font-family="sans-serif" font-size="11" lengthAdjust="spacing" textLength="54" x="144" y="612.0726">Str status</text><line style="stroke:#A80036;stroke-width:1.5;" x1="125" x2="161" y1="493.0223" y2="493.0223"/><text fill="#000000" font-family="sans-serif" font-size="11" lengthAdjust="spacing" textLength="50" x="161" y="496.3304">Atributos</text><line style="stroke:#A80036;stroke-width:1.5;" x1="211" x2="247" y1="493.0223" y2="493.0223"/><ellipse cx="135" cy="638.4716" fill="#84BE84" rx="3" ry="3" style="stroke:#038048;stroke-width:1.0;"/><text fill="#000000" font-family="sans-serif" font-size="11" lengthAdjust="spacing" textLength="65" x="144" y="641.682">Candidato()</text><ellipse cx="135" cy="651.2762" fill="#84BE84" rx="3" ry="3" style="stroke:#038048;stroke-width:1.0;"/><text fill="#000000" font-family="sans-serif" font-size="11" lengthAdjust="spacing" textLength="54" x="144" y="654.4867">foiEleito()</text><line style="stroke:#A80036;stroke-width:1.5;" x1="125" x2="162" y1="625.0692" y2="625.0692"/><text fill="#000000" font-family="sans-serif" font-size="11" lengthAdjust="spacing" textLength="48" x="162" y="628.3773">Métodos</text><line style="stroke:#A80036;stroke-width:1.5;" x1="210" x2="247" y1="625.0692" y2="625.0692"/><ellipse cx="135" cy="680.8856" fill="#84BE84" rx="3" ry="3" style="stroke:#038048;stroke-width:1.0;"/><text fill="#000000" font-family="sans-serif" font-size="11" lengthAdjust="spacing" textLength="57" x="144" y="684.0961">getSexo()</text><ellipse cx="135" cy="693.6903" fill="#84BE84" rx="3" ry="3" style="stroke:#038048;stroke-width:1.0;"/><text fill="#000000" font-family="sans-serif" font-size="11" lengthAdjust="spacing" textLength="59" x="144" y="696.9008">getIdade()</text><ellipse cx="135" cy="706.495" fill="#84BE84" rx="3" ry="3" style="stroke:#038048;stroke-width:1.0;"/><text fill="#000000" font-family="sans-serif" font-size="11" lengthAdjust="spacing" textLength="59" x="144" y="709.7054">getVotos()</text><ellipse cx="135" cy="719.2997" fill="#84BE84" rx="3" ry="3" style="stroke:#038048;stroke-width:1.0;"/><text fill="#000000" font-family="sans-serif" font-size="11" lengthAdjust="spacing" textLength="98" x="144" y="722.5101">getNum_partido()</text><line style="stroke:#A80036;stroke-width:1.0;stroke-dasharray:1.0,2.0;" x1="125" x2="164.5" y1="667.4833" y2="667.4833"/><text fill="#000000" font-family="sans-serif" font-size="11" lengthAdjust="spacing" textLength="43" x="164.5" y="670.7914">Getters</text><line style="stroke:#A80036;stroke-width:1.0;stroke-dasharray:1.0,2.0;" x1="207.5" x2="247" y1="667.4833" y2="667.4833"/><ellipse cx="135" cy="748.9091" fill="#84BE84" rx="3" ry="3" style="stroke:#038048;stroke-width:1.0;"/><text fill="#000000" font-family="sans-serif" font-size="11" lengthAdjust="spacing" textLength="72" x="144" y="752.1195">compareTo()</text><line style="stroke:#A80036;stroke-width:1.0;stroke-dasharray:1.0,2.0;" x1="125" x2="150.5" y1="735.5067" y2="735.5067"/><text fill="#000000" font-family="sans-serif" font-size="11" lengthAdjust="spacing" textLength="71" x="150.5" y="738.8148">Comparação</text><line style="stroke:#A80036;stroke-width:1.0;stroke-dasharray:1.0,2.0;" x1="221.5" x2="247" y1="735.5067" y2="735.5067"/><ellipse cx="135" cy="778.5184" fill="#84BE84" rx="3" ry="3" style="stroke:#038048;stroke-width:1.0;"/><text fill="#000000" font-family="sans-serif" font-size="11" lengthAdjust="spacing" textLength="52" x="144" y="781.7289">toString()</text><ellipse cx="135" cy="791.3231" fill="#84BE84" rx="3" ry="3" style="stroke:#038048;stroke-width:1.0;"/><text fill="#000000" font-family="sans-serif" font-size="11" lengthAdjust="spacing" textLength="79" x="144" y="794.5336">simpleString()</text><line style="stroke:#A80036;stroke-width:1.0;stroke-dasharray:1.0,2.0;" x1="125" x2="156.5" y1="765.1161" y2="765.1161"/><text fill="#000000" font-family="sans-serif" font-size="11" lengthAdjust="spacing" textLength="59" x="156.5" y="768.4242">Impressão</text><line style="stroke:#A80036;stroke-width:1.0;stroke-dasharray:1.0,2.0;" x1="215.5" x2="247" y1="765.1161" y2="765.1161"/><!--MD5=[d874821b5a91b2c9b7ae821155468977]
class Testador--><rect codeLine="126" fill="#FEFECE" filter="url(#f3lgscitrkve6)" height="69.6094" id="Testador" style="stroke:#A80036;stroke-width:1.5;" width="86" x="386" y="185.12"/><ellipse cx="401" cy="201.12" fill="#ADD1B2" rx="11" ry="11" style="stroke:#A80036;stroke-width:1.0;"/><path d="M403.3438,196.7919 C402.4063,196.3544 401.8125,196.2137 400.9375,196.2137 C398.3125,196.2137 396.3125,198.2919 396.3125,201.0106 L396.3125,202.1356 C396.3125,204.7137 398.4219,206.6044 401.3125,206.6044 C402.5313,206.6044 403.6875,206.3075 404.4375,205.7606 C405.0156,205.3544 405.3438,204.9012 405.3438,204.5106 C405.3438,204.0575 404.9531,203.6669 404.4844,203.6669 C404.2656,203.6669 404.0625,203.745 403.875,203.9325 C403.4219,204.4169 403.4219,204.4169 403.2344,204.5106 C402.8125,204.7762 402.125,204.9012 401.3594,204.9012 C399.3125,204.9012 398.0156,203.8075 398.0156,202.1044 L398.0156,201.0106 C398.0156,199.2294 399.2656,197.9169 401,197.9169 C401.5781,197.9169 402.1875,198.0731 402.6563,198.3231 C403.1406,198.6044 403.3125,198.8231 403.4063,199.2294 C403.4688,199.6356 403.5,199.7606 403.6406,199.8856 C403.7813,200.0262 404.0156,200.1356 404.2344,200.1356 C404.5,200.1356 404.7656,199.995 404.9375,199.7762 C405.0469,199.62 405.0781,199.4325 405.0781,199.0106 L405.0781,197.5887 C405.0781,197.1512 405.0625,197.0262 404.9688,196.87 C404.8125,196.6044 404.5313,196.4637 404.2344,196.4637 C403.9375,196.4637 403.7344,196.5575 403.5156,196.87 L403.3438,196.7919 Z " fill="#000000"/><text fill="#000000" font-family="sans-serif" font-size="12" lengthAdjust="spacing" textLength="54" x="415" y="205.2743">Testador</text><line style="stroke:#A80036;stroke-width:1.5;" x1="387" x2="471" y1="217.12" y2="217.12"/><ellipse cx="397" cy="244.9247" fill="#84BE84" rx="3" ry="3" style="stroke:#038048;stroke-width:1.0;"/><text fill="#000000" font-family="sans-serif" font-size="11" lengthAdjust="spacing" textLength="36" x="406" y="248.1351">main()</text><line style="stroke:#A80036;stroke-width:1.5;" x1="387" x2="405" y1="231.5223" y2="231.5223"/><text fill="#000000" font-family="sans-serif" font-size="11" lengthAdjust="spacing" textLength="48" x="405" y="234.8304">Métodos</text><line style="stroke:#A80036;stroke-width:1.5;" x1="453" x2="471" y1="231.5223" y2="231.5223"/><!--MD5=[8bbe5b6b77c632e396eb49455175abdf]
class Leitor--><rect codeLine="87" fill="#FEFECE" filter="url(#f3lgscitrkve6)" height="120.8281" id="Leitor" style="stroke:#A80036;stroke-width:1.5;" width="142" x="528" y="159.62"/><ellipse cx="577.75" cy="175.62" fill="#ADD1B2" rx="11" ry="11" style="stroke:#A80036;stroke-width:1.0;"/><path d="M580.0938,171.2919 C579.1563,170.8544 578.5625,170.7137 577.6875,170.7137 C575.0625,170.7137 573.0625,172.7919 573.0625,175.5106 L573.0625,176.6356 C573.0625,179.2137 575.1719,181.1044 578.0625,181.1044 C579.2813,181.1044 580.4375,180.8075 581.1875,180.2606 C581.7656,179.8544 582.0938,179.4012 582.0938,179.0106 C582.0938,178.5575 581.7031,178.1669 581.2344,178.1669 C581.0156,178.1669 580.8125,178.245 580.625,178.4325 C580.1719,178.9169 580.1719,178.9169 579.9844,179.0106 C579.5625,179.2762 578.875,179.4012 578.1094,179.4012 C576.0625,179.4012 574.7656,178.3075 574.7656,176.6044 L574.7656,175.5106 C574.7656,173.7294 576.0156,172.4169 577.75,172.4169 C578.3281,172.4169 578.9375,172.5731 579.4063,172.8231 C579.8906,173.1044 580.0625,173.3231 580.1563,173.7294 C580.2188,174.1356 580.25,174.2606 580.3906,174.3856 C580.5313,174.5262 580.7656,174.6356 580.9844,174.6356 C581.25,174.6356 581.5156,174.495 581.6875,174.2762 C581.7969,174.12 581.8281,173.9325 581.8281,173.5106 L581.8281,172.0887 C581.8281,171.6512 581.8125,171.5262 581.7188,171.37 C581.5625,171.1044 581.2813,170.9637 580.9844,170.9637 C580.6875,170.9637 580.4844,171.0575 580.2656,171.37 L580.0938,171.2919 Z " fill="#000000"/><text fill="#000000" font-family="sans-serif" font-size="12" lengthAdjust="spacing" textLength="34" x="598.25" y="179.7743">Leitor</text><line style="stroke:#A80036;stroke-width:1.5;" x1="529" x2="669" y1="191.62" y2="191.62"/><ellipse cx="539" cy="219.4247" fill="#84BE84" rx="3" ry="3" style="stroke:#038048;stroke-width:1.0;"/><text fill="#000000" font-family="sans-serif" font-size="11" lengthAdjust="spacing" textLength="46" x="548" y="222.6351">leData()</text><ellipse cx="539" cy="232.2294" fill="#84BE84" rx="3" ry="3" style="stroke:#038048;stroke-width:1.0;"/><text fill="#000000" font-family="sans-serif" font-size="11" lengthAdjust="spacing" textLength="57" x="548" y="235.4398">lePartido()</text><ellipse cx="539" cy="245.0341" fill="#84BE84" rx="3" ry="3" style="stroke:#038048;stroke-width:1.0;"/><text fill="#000000" font-family="sans-serif" font-size="11" lengthAdjust="spacing" textLength="76" x="548" y="248.2445">leCandidato()</text><ellipse cx="539" cy="257.8387" fill="#84BE84" rx="3" ry="3" style="stroke:#038048;stroke-width:1.0;"/><text fill="#000000" font-family="sans-serif" font-size="11" lengthAdjust="spacing" textLength="97" x="548" y="261.0492">leTodosPartidos()</text><ellipse cx="539" cy="270.6434" fill="#84BE84" rx="3" ry="3" style="stroke:#038048;stroke-width:1.0;"/><text fill="#000000" font-family="sans-serif" font-size="11" lengthAdjust="spacing" textLength="116" x="548" y="273.8539">leTodosCandidatos()</text><line style="stroke:#A80036;stroke-width:1.5;" x1="529" x2="575" y1="206.0223" y2="206.0223"/><text fill="#000000" font-family="sans-serif" font-size="11" lengthAdjust="spacing" textLength="48" x="575" y="209.3304">Métodos</text><line style="stroke:#A80036;stroke-width:1.5;" x1="623" x2="669" y1="206.0223" y2="206.0223"/><!--MD5=[d93caa29388ee3217820eab7bd878454]
class Estatisticas--><rect codeLine="100" fill="#FEFECE" filter="url(#f3lgscitrkve6)" height="184.8516" id="Estatisticas" style="stroke:#A80036;stroke-width:1.5;" width="251" x="726.5" y="127.62"/><ellipse cx="814.25" cy="143.62" fill="#ADD1B2" rx="11" ry="11" style="stroke:#A80036;stroke-width:1.0;"/><path d="M816.5938,139.2919 C815.6563,138.8544 815.0625,138.7137 814.1875,138.7137 C811.5625,138.7137 809.5625,140.7919 809.5625,143.5106 L809.5625,144.6356 C809.5625,147.2137 811.6719,149.1044 814.5625,149.1044 C815.7813,149.1044 816.9375,148.8075 817.6875,148.2606 C818.2656,147.8544 818.5938,147.4012 818.5938,147.0106 C818.5938,146.5575 818.2031,146.1669 817.7344,146.1669 C817.5156,146.1669 817.3125,146.245 817.125,146.4325 C816.6719,146.9169 816.6719,146.9169 816.4844,147.0106 C816.0625,147.2762 815.375,147.4012 814.6094,147.4012 C812.5625,147.4012 811.2656,146.3075 811.2656,144.6044 L811.2656,143.5106 C811.2656,141.7294 812.5156,140.4169 814.25,140.4169 C814.8281,140.4169 815.4375,140.5731 815.9063,140.8231 C816.3906,141.1044 816.5625,141.3231 816.6563,141.7294 C816.7188,142.1356 816.75,142.2606 816.8906,142.3856 C817.0313,142.5262 817.2656,142.6356 817.4844,142.6356 C817.75,142.6356 818.0156,142.495 818.1875,142.2762 C818.2969,142.12 818.3281,141.9325 818.3281,141.5106 L818.3281,140.0887 C818.3281,139.6512 818.3125,139.5262 818.2188,139.37 C818.0625,139.1044 817.7813,138.9637 817.4844,138.9637 C817.1875,138.9637 816.9844,139.0575 816.7656,139.37 L816.5938,139.2919 Z " fill="#000000"/><text fill="#000000" font-family="sans-serif" font-size="12" lengthAdjust="spacing" textLength="67" x="834.75" y="147.7743">Estatisticas</text><line style="stroke:#A80036;stroke-width:1.5;" x1="727.5" x2="976.5" y1="159.62" y2="159.62"/><ellipse cx="737.5" cy="187.4247" fill="#84BE84" rx="3" ry="3" style="stroke:#038048;stroke-width:1.0;"/><text fill="#000000" font-family="sans-serif" font-size="11" lengthAdjust="spacing" textLength="85" x="746.5" y="190.6351">imprimeSexo()</text><ellipse cx="737.5" cy="200.2294" fill="#84BE84" rx="3" ry="3" style="stroke:#038048;stroke-width:1.0;"/><text fill="#000000" font-family="sans-serif" font-size="11" lengthAdjust="spacing" textLength="87" x="746.5" y="203.4398">imprimeIdade()</text><ellipse cx="737.5" cy="213.0341" fill="#84BE84" rx="3" ry="3" style="stroke:#038048;stroke-width:1.0;"/><text fill="#000000" font-family="sans-serif" font-size="11" lengthAdjust="spacing" textLength="93" x="746.5" y="216.2445">imprimeEleitos()</text><ellipse cx="737.5" cy="225.8387" fill="#84BE84" rx="3" ry="3" style="stroke:#038048;stroke-width:1.0;"/><text fill="#000000" font-family="sans-serif" font-size="11" lengthAdjust="spacing" textLength="116" x="746.5" y="229.0492">imprimeNumVagas()</text><ellipse cx="737.5" cy="238.6434" fill="#84BE84" rx="3" ry="3" style="stroke:#038048;stroke-width:1.0;"/><text fill="#000000" font-family="sans-serif" font-size="11" lengthAdjust="spacing" textLength="115" x="746.5" y="241.8539">imprimeTotalVotos()</text><ellipse cx="737.5" cy="251.4481" fill="#84BE84" rx="3" ry="3" style="stroke:#038048;stroke-width:1.0;"/><text fill="#000000" font-family="sans-serif" font-size="11" lengthAdjust="spacing" textLength="126" x="746.5" y="254.6586">imprimeMaisVotados()</text><ellipse cx="737.5" cy="264.2528" fill="#84BE84" rx="3" ry="3" style="stroke:#038048;stroke-width:1.0;"/><text fill="#000000" font-family="sans-serif" font-size="11" lengthAdjust="spacing" textLength="126" x="746.5" y="267.4633">imprimePrejudicados()</text><ellipse cx="737.5" cy="277.0575" fill="#84BE84" rx="3" ry="3" style="stroke:#038048;stroke-width:1.0;"/><text fill="#000000" font-family="sans-serif" font-size="11" lengthAdjust="spacing" textLength="129" x="746.5" y="280.2679">imprimeBeneficiados()</text><ellipse cx="737.5" cy="289.8622" fill="#84BE84" rx="3" ry="3" style="stroke:#038048;stroke-width:1.0;"/><text fill="#000000" font-family="sans-serif" font-size="11" lengthAdjust="spacing" textLength="170" x="746.5" y="293.0726">imprimePartidosMaisVotados()</text><ellipse cx="737.5" cy="302.6669" fill="#84BE84" rx="3" ry="3" style="stroke:#038048;stroke-width:1.0;"/><text fill="#000000" font-family="sans-serif" font-size="11" lengthAdjust="spacing" textLength="225" x="746.5" y="305.8773">imprimeMelhorPiorCandidatoPorPartido()</text><line style="stroke:#A80036;stroke-width:1.5;" x1="727.5" x2="828" y1="174.0223" y2="174.0223"/><text fill="#000000" font-family="sans-serif" font-size="11" lengthAdjust="spacing" textLength="48" x="828" y="177.3304">Métodos</text><line style="stroke:#A80036;stroke-width:1.5;" x1="876" x2="976.5" y1="174.0223" y2="174.0223"/><!--MD5=[f5f338a9fc11908edd580461341aeb3d]
entity ##61034--><!--MD5=[2e4b29cdb8af1e43ec2bb45cc9890514]
reverse link Comparable to Partido--><path d="M78.2411,264.08 C66.6789,362.063 46.5364,608.487 106,801.62 C122.671,855.767 153.852,909.806 184.291,954.147 " fill="none" id="Comparable-backto-Partido" style="stroke:#A80036;stroke-width:1.0;stroke-dasharray:7.0,7.0;"/><polygon fill="none" points="71.2948,263.22,80.7122,244.24,85.1875,264.95,71.2948,263.22" style="stroke:#A80036;stroke-width:1.0;"/><!--MD5=[e9cd0fae588995789ff0abf10b844beb]
reverse link Comparable to Candidato--><path d="M94.6692,263.98 C104.549,303.604 119.68,364.107 133,416.62 C135.48,426.396 138.032,436.431 140.614,446.559 " fill="none" id="Comparable-backto-Candidato" style="stroke:#A80036;stroke-width:1.0;stroke-dasharray:7.0,7.0;"/><polygon fill="none" points="87.8089,265.4,89.7656,244.3,101.394,262.02,87.8089,265.4" style="stroke:#A80036;stroke-width:1.0;"/><!--MD5=[2232d7c5051e26af7c7c434fdc168c80]
link Testador to Eleição--><path codeLine="116" d="M414.571,255.33 C393.459,302.013 372.347,327.444 351.234,331.627 " fill="none" id="Testador-Eleição" style="stroke:#A80036;stroke-width:1.0;"/><!--MD5=[d347b5bc959bb46dcff90437fef513f4]
link Eleição to Testador--><!--MD5=[dfb07e7f7f2032e8a25b2679e2cf0b36]
link Testador to Leitor--><path codeLine="117" d="M472.164,240.01 C490.661,245.63 509.158,247.53 527.655,245.69 " fill="none" id="Testador-Leitor" style="stroke:#A80036;stroke-width:1.0;"/><!--MD5=[d292018b4d383dc79ce30fe95adf4077]
link Testador to Estatisticas--><path codeLine="118" d="M431.601,184.86 C437.632,133.63 457.605,42.06 523.667,17.62 C555.068,6 642.932,6 674.333,17.62 C727.628,37.34 770.355,83.95 800.54,127.49 " fill="none" id="Testador-Estatisticas" style="stroke:#A80036;stroke-width:1.0;"/><!--MD5=[482b137b0827c8ac86e84d3fc005bf02]
link Eleição to Candidato--><path codeLine="120" d="M233.286,369.668 C228.923,393.054 224.369,417.46 219.886,441.492 " fill="none" id="Eleição-to-Candidato" style="stroke:#A80036;stroke-width:1.0;"/><polygon fill="#A80036" points="218.93,446.614,224.5128,438.5003,219.847,441.6988,216.6485,437.033,218.93,446.614" style="stroke:#A80036;stroke-width:1.0;"/><text fill="#000000" font-family="sans-serif" font-size="13" lengthAdjust="spacing" textLength="42" x="227" y="412.6869">Eleitos</text><text fill="#000000" font-family="sans-serif" font-size="13" lengthAdjust="spacing" textLength="50" x="169.2893" y="435.312">TreeSet</text><!--MD5=[482b137b0827c8ac86e84d3fc005bf02]
link Eleição to Candidato--><path codeLine="121" d="M170.889,338.332 C159.839,357.899 150.253,378.672 144,399.62 C139.977,413.097 137.886,427.152 137.269,441.362 " fill="none" id="Eleição-to-Candidato-1" style="stroke:#A80036;stroke-width:1.0;"/><polygon fill="#A80036" points="137.108,446.604,141.3838,437.7317,137.2623,441.6064,133.3876,437.4848,137.108,446.604" style="stroke:#A80036;stroke-width:1.0;"/><text fill="#000000" font-family="sans-serif" font-size="13" lengthAdjust="spacing" textLength="72" x="145" y="412.6869">Candidatos</text><text fill="#000000" font-family="sans-serif" font-size="13" lengthAdjust="spacing" textLength="50" x="83.7594" y="435.3015">TreeSet</text><!--MD5=[23f202ad7b136b80fef75b338c30c5a7]
link Eleição to Partido--><path codeLine="122" d="M296.873,369.725 C298.51,379.802 299.917,389.835 301,399.62 C322.951,597.965 317.575,649.754 301,848.62 C300.325,856.723 299.504,864.984 298.569,873.317 " fill="none" id="Eleição-to-Partido" style="stroke:#A80036;stroke-width:1.0;"/><polygon fill="#A80036" points="297.971,878.513,302.9734,870.0291,298.5424,873.5458,295.0258,869.1148,297.971,878.513" style="stroke:#A80036;stroke-width:1.0;"/><text fill="#000000" font-family="sans-serif" font-size="13" lengthAdjust="spacing" textLength="52" x="316" y="628.6869">Partidos</text><text fill="#000000" font-family="sans-serif" font-size="13" lengthAdjust="spacing" textLength="50" x="248.2651" y="867.6995">TreeSet</text><!--MD5=[4a977030a1feae35667042cbce4128ae]
link Partido to Eleição--><!--MD5=[2b4aa8cdb10d5357e8a20c10fe42a04b]
link Partido to Candidato--><path codeLine="123" d="M189.935,878.436 C187.238,868.453 184.889,858.473 183,848.62 C180.413,835.128 178.599,821.093 177.394,806.923 " fill="none" id="Partido-to-Candidato" style="stroke:#A80036;stroke-width:1.0;"/><polygon fill="#A80036" points="176.977,801.698,173.7045,810.9873,177.3741,806.6822,181.6792,810.3519,176.977,801.698" style="stroke:#A80036;stroke-width:1.0;"/><text fill="#000000" font-family="sans-serif" font-size="13" lengthAdjust="spacing" textLength="72" x="184" y="844.6869">Candidatos</text><text fill="#000000" font-family="sans-serif" font-size="13" lengthAdjust="spacing" textLength="50" x="125.648" y="821.0067">TreeSet</text><!--MD5=[dc5ce00538e7ff722f187dfb42ae3638]
link Candidato to Partido--><!--MD5=[bb9671eeb5b93494969c8a4e771291ad]
@startuml
package "Eleições"{

Class Eleição{
__Atribuitos__
- int total_votos_legenda
- int total_votos_nominais
- LocalDate data
__Métodos__
+ Eleicao()
+ qtdEleitos()
.. Getters ..
+ getEleitos()
+ getPartidos()
+ getCandidatos()
+ get_total_votos_legenda()
+ get_total_votos_nominais()
.. Setters ..
+ adicionaEleito()
+ addPartidoEleicao()
+ addCandidatoEleicao()
+ add_total_votos_legenda()
+ add_total_votos_nominais()
}

Class Partido implements Comparable{
__Atributos__
- int numero_partido
- int qtdCandidatosEleitos
- int votos_legenda
- int votos_nominais
- Str nome_partido
- Str sigla_partido
__Métodos__
+ Partido()
+ votosTotais()
.. Getters ..
+ getCandidatos()
+ getSigla_partido()
+ getVotos_legenda()
+ getNumero_partido()
.. Setters ..
+ add_Votos_nominais()
+ add_CandidatoPartido()
.. Comparação ..
+ compareTo()
.. Impressão ..
+ simplesString()
+ toString()
}


Class Candidato implements Comparable{
__Atributos__
- int idade
- int numero
- int num_partido
- int votos
- char sexo
- LocalDate nasc
- Str nome
- Str nome_urna
- Str status
__Métodos__
+ Candidato()
+ foiEleito()
.. Getters ..
+ getSexo()
+ getIdade()
+ getVotos()
+ getNum_partido()
.. Comparação ..
+ compareTo()
.. Impressão ..
+ toString()
+ simpleString()
}

Class Testador{
__Métodos__
+ main()
}

}

package "Entrada"{

Class Leitor{
__Métodos__
+ leData()
+ lePartido()
+ leCandidato()
+ leTodosPartidos()
+ leTodosCandidatos()
}

}

package "Saida"{

Class Estatisticas{
__Métodos__
+ imprimeSexo()
+ imprimeIdade()
+ imprimeEleitos()
+ imprimeNumVagas()
+ imprimeTotalVotos()
+ imprimeMaisVotados()
+ imprimePrejudicados()
+ imprimeBeneficiados()
+ imprimePartidosMaisVotados()
+ imprimeMelhorPiorCandidatoPorPartido()
}

}

Testador - Eleição
Testador - Leitor
Testador - Estatisticas

Eleição - -> "TreeSet" Candidato : Eleitos
Eleição - -> "TreeSet" Candidato : Candidatos
Eleição - -> "TreeSet" Partido : Partidos
Partido - -> "TreeSet" Candidato : Candidatos

together {
 class Testador
 class Partido
 class Candidato
 class Eleição
}

Candidato -[hidden]- Partido
Partido -[hidden]- Eleição
Eleição -[hidden]- Testador
@enduml

PlantUML version 1.2021.4(Sun Apr 04 08:49:39 UTC 2021)
(GPL source distribution)
Java Runtime: Java(TM) SE Runtime Environment
JVM: Java HotSpot(TM) 64-Bit Server VM
Default Encoding: UTF-8
Language: en
Country: US
--></g></svg>