<?xml version="1.0" encoding="UTF-8" standalone="no"?><svg xmlns="http://www.w3.org/2000/svg" xmlns:xlink="http://www.w3.org/1999/xlink" contentScriptType="application/ecmascript" contentStyleType="text/css" height="1447px" preserveAspectRatio="none" style="width:1034px;height:1447px;" version="1.1" viewBox="0 0 1034 1447" width="1034px" zoomAndPan="magnify"><defs><filter height="300%" id="f6c41olxoeelx" width="300%" x="-1" y="-1"><feGaussianBlur result="blurOut" stdDeviation="2.0"/><feColorMatrix in="blurOut" result="blurOut2" type="matrix" values="0 0 0 0 0 0 0 0 0 0 0 0 0 0 0 0 0 0 .4 0"/><feOffset dx="4.0" dy="4.0" in="blurOut2" result="blurOut3"/><feBlend in="SourceGraphic" in2="blurOut3" mode="normal"/></filter></defs><g><!--MD5=[d1415e68cb1dde832b9455991a7d610f]
cluster Testador--><polygon fill="#FFFFFF" filter="url(#f6c41olxoeelx)" points="575.9655,6,655.9655,6,662.9655,28.2969,669.9655,28.2969,669.9655,127,575.9655,127,575.9655,6" style="stroke:#000000;stroke-width:1.5;"/><line style="stroke:#000000;stroke-width:1.5;" x1="575.9655" x2="662.9655" y1="28.2969" y2="28.2969"/><text fill="#000000" font-family="sans-serif" font-size="14" font-weight="bold" lengthAdjust="spacing" textLength="74" x="579.9655" y="20.9951">Testador</text><!--MD5=[df9c410a25278e6f61a545919ef9c40f]
cluster Eleições--><polygon fill="#FFFFFF" filter="url(#f6c41olxoeelx)" points="20.9655,222,91.9655,222,98.9655,244.2969,511.9655,244.2969,511.9655,1440,20.9655,1440,20.9655,222" style="stroke:#000000;stroke-width:1.5;"/><line style="stroke:#000000;stroke-width:1.5;" x1="20.9655" x2="98.9655" y1="244.2969" y2="244.2969"/><text fill="#000000" font-family="sans-serif" font-size="14" font-weight="bold" lengthAdjust="spacing" textLength="65" x="24.9655" y="236.9951">Eleições</text><!--MD5=[b4147e90ba76eb07f6071751108ef758]
cluster Entrada--><polygon fill="#FFFFFF" filter="url(#f6c41olxoeelx)" points="535.9655,311,605.9655,311,612.9655,333.2969,709.9655,333.2969,709.9655,483,535.9655,483,535.9655,311" style="stroke:#000000;stroke-width:1.5;"/><line style="stroke:#000000;stroke-width:1.5;" x1="535.9655" x2="612.9655" y1="333.2969" y2="333.2969"/><text fill="#000000" font-family="sans-serif" font-size="14" font-weight="bold" lengthAdjust="spacing" textLength="64" x="539.9655" y="325.9951">Entrada</text><!--MD5=[8d7c40f2144465388d56c5b562715a92]
cluster Saida--><polygon fill="#FFFFFF" filter="url(#f6c41olxoeelx)" points="733.9655,279,784.9655,279,791.9655,301.2969,1017.9655,301.2969,1017.9655,515,733.9655,515,733.9655,279" style="stroke:#000000;stroke-width:1.5;"/><line style="stroke:#000000;stroke-width:1.5;" x1="733.9655" x2="791.9655" y1="301.2969" y2="301.2969"/><text fill="#000000" font-family="sans-serif" font-size="14" font-weight="bold" lengthAdjust="spacing" textLength="45" x="737.9655" y="293.9951">Saida</text><!--MD5=[84718776d214be480e4c259efcb737fc]
class Main--><rect codeLine="3" fill="#FEFECE" filter="url(#f6c41olxoeelx)" height="69.6094" id="Main" style="stroke:#A80036;stroke-width:1.5;" width="62" x="591.9655" y="41"/><ellipse cx="608.3155" cy="57" fill="#ADD1B2" rx="11" ry="11" style="stroke:#A80036;stroke-width:1.0;"/><path d="M610.6592,52.6719 C609.7217,52.2344 609.128,52.0938 608.253,52.0938 C605.628,52.0938 603.628,54.1719 603.628,56.8906 L603.628,58.0156 C603.628,60.5938 605.7374,62.4844 608.628,62.4844 C609.8467,62.4844 611.003,62.1875 611.753,61.6406 C612.3311,61.2344 612.6592,60.7813 612.6592,60.3906 C612.6592,59.9375 612.2686,59.5469 611.7999,59.5469 C611.5811,59.5469 611.378,59.625 611.1905,59.8125 C610.7374,60.2969 610.7374,60.2969 610.5499,60.3906 C610.128,60.6563 609.4405,60.7813 608.6749,60.7813 C606.628,60.7813 605.3311,59.6875 605.3311,57.9844 L605.3311,56.8906 C605.3311,55.1094 606.5811,53.7969 608.3155,53.7969 C608.8936,53.7969 609.503,53.9531 609.9717,54.2031 C610.4561,54.4844 610.628,54.7031 610.7217,55.1094 C610.7842,55.5156 610.8155,55.6406 610.9561,55.7656 C611.0967,55.9063 611.3311,56.0156 611.5499,56.0156 C611.8155,56.0156 612.0811,55.875 612.253,55.6563 C612.3624,55.5 612.3936,55.3125 612.3936,54.8906 L612.3936,53.4688 C612.3936,53.0313 612.378,52.9063 612.2842,52.75 C612.128,52.4844 611.8467,52.3438 611.5499,52.3438 C611.253,52.3438 611.0499,52.4375 610.8311,52.75 L610.6592,52.6719 Z " fill="#000000"/><text fill="#000000" font-family="sans-serif" font-size="12" lengthAdjust="spacing" textLength="27" x="622.6155" y="61.1543">Main</text><line style="stroke:#A80036;stroke-width:1.5;" x1="592.9655" x2="652.9655" y1="73" y2="73"/><ellipse cx="602.9655" cy="100.8047" fill="#84BE84" rx="3" ry="3" style="stroke:#038048;stroke-width:1.0;"/><text fill="#000000" font-family="sans-serif" font-size="11" lengthAdjust="spacing" textLength="36" x="611.9655" y="104.0151">main()</text><line style="stroke:#A80036;stroke-width:1.5;" x1="592.9655" x2="598.9655" y1="87.4023" y2="87.4023"/><text fill="#000000" font-family="sans-serif" font-size="11" lengthAdjust="spacing" textLength="48" x="598.9655" y="90.7104">Métodos</text><line style="stroke:#A80036;stroke-width:1.5;" x1="646.9655" x2="652.9655" y1="87.4023" y2="87.4023"/><!--MD5=[2cff5cdbba869313d223bfe4d1351f5e]
class Eleição--><rect codeLine="133" fill="#FEFECE" filter="url(#f6c41olxoeelx)" height="299.2891" id="Eleição" style="stroke:#A80036;stroke-width:1.5;" width="180" x="217.9655" y="257"/><ellipse cx="282.2155" cy="273" fill="#ADD1B2" rx="11" ry="11" style="stroke:#A80036;stroke-width:1.0;"/><path d="M284.5592,268.6719 C283.6217,268.2344 283.028,268.0938 282.153,268.0938 C279.528,268.0938 277.528,270.1719 277.528,272.8906 L277.528,274.0156 C277.528,276.5938 279.6374,278.4844 282.528,278.4844 C283.7467,278.4844 284.903,278.1875 285.653,277.6406 C286.2311,277.2344 286.5592,276.7813 286.5592,276.3906 C286.5592,275.9375 286.1686,275.5469 285.6999,275.5469 C285.4811,275.5469 285.278,275.625 285.0905,275.8125 C284.6374,276.2969 284.6374,276.2969 284.4499,276.3906 C284.028,276.6563 283.3405,276.7813 282.5749,276.7813 C280.528,276.7813 279.2311,275.6875 279.2311,273.9844 L279.2311,272.8906 C279.2311,271.1094 280.4811,269.7969 282.2155,269.7969 C282.7936,269.7969 283.403,269.9531 283.8717,270.2031 C284.3561,270.4844 284.528,270.7031 284.6217,271.1094 C284.6842,271.5156 284.7155,271.6406 284.8561,271.7656 C284.9967,271.9063 285.2311,272.0156 285.4499,272.0156 C285.7155,272.0156 285.9811,271.875 286.153,271.6563 C286.2624,271.5 286.2936,271.3125 286.2936,270.8906 L286.2936,269.4688 C286.2936,269.0313 286.278,268.9063 286.1842,268.75 C286.028,268.4844 285.7467,268.3438 285.4499,268.3438 C285.153,268.3438 284.9499,268.4375 284.7311,268.75 L284.5592,268.6719 Z " fill="#000000"/><text fill="#000000" font-family="sans-serif" font-size="12" lengthAdjust="spacing" textLength="43" x="302.7155" y="277.1543">Eleição</text><line style="stroke:#A80036;stroke-width:1.5;" x1="218.9655" x2="396.9655" y1="289" y2="289"/><rect fill="none" height="6" style="stroke:#C82930;stroke-width:1.0;" width="6" x="225.9655" y="313.8047"/><text fill="#000000" font-family="sans-serif" font-size="11" lengthAdjust="spacing" textLength="133" x="237.9655" y="320.0151">int total_votos_legenda</text><rect fill="none" height="6" style="stroke:#C82930;stroke-width:1.0;" width="6" x="225.9655" y="326.6094"/><text fill="#000000" font-family="sans-serif" font-size="11" lengthAdjust="spacing" textLength="137" x="237.9655" y="332.8198">int total_votos_nominais</text><rect fill="none" height="6" style="stroke:#C82930;stroke-width:1.0;" width="6" x="225.9655" y="339.4141"/><text fill="#000000" font-family="sans-serif" font-size="11" lengthAdjust="spacing" textLength="86" x="237.9655" y="345.6245">LocalDate data</text><line style="stroke:#A80036;stroke-width:1.5;" x1="218.9655" x2="281.4655" y1="303.4023" y2="303.4023"/><text fill="#000000" font-family="sans-serif" font-size="11" lengthAdjust="spacing" textLength="53" x="281.4655" y="306.7104">Atribuitos</text><line style="stroke:#A80036;stroke-width:1.5;" x1="334.4655" x2="396.9655" y1="303.4023" y2="303.4023"/><ellipse cx="228.9655" cy="372.0234" fill="#84BE84" rx="3" ry="3" style="stroke:#038048;stroke-width:1.0;"/><text fill="#000000" font-family="sans-serif" font-size="11" lengthAdjust="spacing" textLength="49" x="237.9655" y="375.2339">Eleicao()</text><ellipse cx="228.9655" cy="384.8281" fill="#84BE84" rx="3" ry="3" style="stroke:#038048;stroke-width:1.0;"/><text fill="#000000" font-family="sans-serif" font-size="11" lengthAdjust="spacing" textLength="64" x="237.9655" y="388.0386">qtdEleitos()</text><line style="stroke:#A80036;stroke-width:1.5;" x1="218.9655" x2="283.9655" y1="358.6211" y2="358.6211"/><text fill="#000000" font-family="sans-serif" font-size="11" lengthAdjust="spacing" textLength="48" x="283.9655" y="361.9292">Métodos</text><line style="stroke:#A80036;stroke-width:1.5;" x1="331.9655" x2="396.9655" y1="358.6211" y2="358.6211"/><ellipse cx="228.9655" cy="414.4375" fill="#84BE84" rx="3" ry="3" style="stroke:#038048;stroke-width:1.0;"/><text fill="#000000" font-family="sans-serif" font-size="11" lengthAdjust="spacing" textLength="65" x="237.9655" y="417.6479">getEleitos()</text><ellipse cx="228.9655" cy="427.2422" fill="#84BE84" rx="3" ry="3" style="stroke:#038048;stroke-width:1.0;"/><text fill="#000000" font-family="sans-serif" font-size="11" lengthAdjust="spacing" textLength="71" x="237.9655" y="430.4526">getPartidos()</text><ellipse cx="228.9655" cy="440.0469" fill="#84BE84" rx="3" ry="3" style="stroke:#038048;stroke-width:1.0;"/><text fill="#000000" font-family="sans-serif" font-size="11" lengthAdjust="spacing" textLength="90" x="237.9655" y="443.2573">getCandidatos()</text><ellipse cx="228.9655" cy="452.8516" fill="#84BE84" rx="3" ry="3" style="stroke:#038048;stroke-width:1.0;"/><text fill="#000000" font-family="sans-serif" font-size="11" lengthAdjust="spacing" textLength="148" x="237.9655" y="456.062">get_total_votos_legenda()</text><ellipse cx="228.9655" cy="465.6563" fill="#84BE84" rx="3" ry="3" style="stroke:#038048;stroke-width:1.0;"/><text fill="#000000" font-family="sans-serif" font-size="11" lengthAdjust="spacing" textLength="152" x="237.9655" y="468.8667">get_total_votos_nominais()</text><line style="stroke:#A80036;stroke-width:1.0;stroke-dasharray:1.0,2.0;" x1="218.9655" x2="286.4655" y1="401.0352" y2="401.0352"/><text fill="#000000" font-family="sans-serif" font-size="11" lengthAdjust="spacing" textLength="43" x="286.4655" y="404.3433">Getters</text><line style="stroke:#A80036;stroke-width:1.0;stroke-dasharray:1.0,2.0;" x1="329.4655" x2="396.9655" y1="401.0352" y2="401.0352"/><ellipse cx="228.9655" cy="495.2656" fill="#84BE84" rx="3" ry="3" style="stroke:#038048;stroke-width:1.0;"/><text fill="#000000" font-family="sans-serif" font-size="11" lengthAdjust="spacing" textLength="87" x="237.9655" y="498.4761">adicionaEleito()</text><ellipse cx="228.9655" cy="508.0703" fill="#84BE84" rx="3" ry="3" style="stroke:#038048;stroke-width:1.0;"/><text fill="#000000" font-family="sans-serif" font-size="11" lengthAdjust="spacing" textLength="108" x="237.9655" y="511.2808">addPartidoEleicao()</text><ellipse cx="228.9655" cy="520.875" fill="#84BE84" rx="3" ry="3" style="stroke:#038048;stroke-width:1.0;"/><text fill="#000000" font-family="sans-serif" font-size="11" lengthAdjust="spacing" textLength="127" x="237.9655" y="524.0854">addCandidatoEleicao()</text><ellipse cx="228.9655" cy="533.6797" fill="#84BE84" rx="3" ry="3" style="stroke:#038048;stroke-width:1.0;"/><text fill="#000000" font-family="sans-serif" font-size="11" lengthAdjust="spacing" textLength="150" x="237.9655" y="536.8901">add_total_votos_legenda()</text><ellipse cx="228.9655" cy="546.4844" fill="#84BE84" rx="3" ry="3" style="stroke:#038048;stroke-width:1.0;"/><text fill="#000000" font-family="sans-serif" font-size="11" lengthAdjust="spacing" textLength="154" x="237.9655" y="549.6948">add_total_votos_nominais()</text><line style="stroke:#A80036;stroke-width:1.0;stroke-dasharray:1.0,2.0;" x1="218.9655" x2="286.9655" y1="481.8633" y2="481.8633"/><text fill="#000000" font-family="sans-serif" font-size="11" lengthAdjust="spacing" textLength="42" x="286.9655" y="485.1714">Setters</text><line style="stroke:#A80036;stroke-width:1.0;stroke-dasharray:1.0,2.0;" x1="328.9655" x2="396.9655" y1="481.8633" y2="481.8633"/><!--MD5=[eca71ce118dab17e2c498309d5e14a6d]
class Partido--><rect codeLine="131" fill="#FEFECE" filter="url(#f6c41olxoeelx)" height="358.5078" id="Partido" style="stroke:#A80036;stroke-width:1.5;" width="163" x="74.4655" y="633"/><ellipse cx="131.2155" cy="649" fill="#ADD1B2" rx="11" ry="11" style="stroke:#A80036;stroke-width:1.0;"/><path d="M133.5592,644.6719 C132.6217,644.2344 132.028,644.0938 131.153,644.0938 C128.528,644.0938 126.528,646.1719 126.528,648.8906 L126.528,650.0156 C126.528,652.5938 128.6374,654.4844 131.528,654.4844 C132.7467,654.4844 133.903,654.1875 134.653,653.6406 C135.2311,653.2344 135.5592,652.7813 135.5592,652.3906 C135.5592,651.9375 135.1686,651.5469 134.6999,651.5469 C134.4811,651.5469 134.278,651.625 134.0905,651.8125 C133.6374,652.2969 133.6374,652.2969 133.4499,652.3906 C133.028,652.6563 132.3405,652.7813 131.5749,652.7813 C129.528,652.7813 128.2311,651.6875 128.2311,649.9844 L128.2311,648.8906 C128.2311,647.1094 129.4811,645.7969 131.2155,645.7969 C131.7936,645.7969 132.403,645.9531 132.8717,646.2031 C133.3561,646.4844 133.528,646.7031 133.6217,647.1094 C133.6842,647.5156 133.7155,647.6406 133.8561,647.7656 C133.9967,647.9063 134.2311,648.0156 134.4499,648.0156 C134.7155,648.0156 134.9811,647.875 135.153,647.6563 C135.2624,647.5 135.2936,647.3125 135.2936,646.8906 L135.2936,645.4688 C135.2936,645.0313 135.278,644.9063 135.1842,644.75 C135.028,644.4844 134.7467,644.3438 134.4499,644.3438 C134.153,644.3438 133.9499,644.4375 133.7311,644.75 L133.5592,644.6719 Z " fill="#000000"/><text fill="#000000" font-family="sans-serif" font-size="12" lengthAdjust="spacing" textLength="41" x="151.7155" y="653.1543">Partido</text><line style="stroke:#A80036;stroke-width:1.5;" x1="75.4655" x2="236.4655" y1="665" y2="665"/><rect fill="none" height="6" style="stroke:#C82930;stroke-width:1.0;" width="6" x="82.4655" y="689.8047"/><text fill="#000000" font-family="sans-serif" font-size="11" lengthAdjust="spacing" textLength="107" x="94.4655" y="696.0151">int numero_partido</text><rect fill="none" height="6" style="stroke:#C82930;stroke-width:1.0;" width="6" x="82.4655" y="702.6094"/><text fill="#000000" font-family="sans-serif" font-size="11" lengthAdjust="spacing" textLength="137" x="94.4655" y="708.8198">int qtdCandidatosEleitos</text><rect fill="none" height="6" style="stroke:#C82930;stroke-width:1.0;" width="6" x="82.4655" y="715.4141"/><text fill="#000000" font-family="sans-serif" font-size="11" lengthAdjust="spacing" textLength="102" x="94.4655" y="721.6245">int votos_legenda</text><rect fill="none" height="6" style="stroke:#C82930;stroke-width:1.0;" width="6" x="82.4655" y="728.2188"/><text fill="#000000" font-family="sans-serif" font-size="11" lengthAdjust="spacing" textLength="106" x="94.4655" y="734.4292">int votos_nominais</text><rect fill="none" height="6" style="stroke:#C82930;stroke-width:1.0;" width="6" x="82.4655" y="741.0234"/><text fill="#000000" font-family="sans-serif" font-size="11" lengthAdjust="spacing" textLength="98" x="94.4655" y="747.2339">Str nome_partido</text><rect fill="none" height="6" style="stroke:#C82930;stroke-width:1.0;" width="6" x="82.4655" y="753.8281"/><text fill="#000000" font-family="sans-serif" font-size="11" lengthAdjust="spacing" textLength="91" x="94.4655" y="760.0386">Str sigla_partido</text><line style="stroke:#A80036;stroke-width:1.5;" x1="75.4655" x2="130.9655" y1="679.4023" y2="679.4023"/><text fill="#000000" font-family="sans-serif" font-size="11" lengthAdjust="spacing" textLength="50" x="130.9655" y="682.7104">Atributos</text><line style="stroke:#A80036;stroke-width:1.5;" x1="180.9655" x2="236.4655" y1="679.4023" y2="679.4023"/><ellipse cx="85.4655" cy="786.4375" fill="#84BE84" rx="3" ry="3" style="stroke:#038048;stroke-width:1.0;"/><text fill="#000000" font-family="sans-serif" font-size="11" lengthAdjust="spacing" textLength="46" x="94.4655" y="789.6479">Partido()</text><ellipse cx="85.4655" cy="799.2422" fill="#84BE84" rx="3" ry="3" style="stroke:#038048;stroke-width:1.0;"/><text fill="#000000" font-family="sans-serif" font-size="11" lengthAdjust="spacing" textLength="73" x="94.4655" y="802.4526">votosTotais()</text><line style="stroke:#A80036;stroke-width:1.5;" x1="75.4655" x2="131.9655" y1="773.0352" y2="773.0352"/><text fill="#000000" font-family="sans-serif" font-size="11" lengthAdjust="spacing" textLength="48" x="131.9655" y="776.3433">Métodos</text><line style="stroke:#A80036;stroke-width:1.5;" x1="179.9655" x2="236.4655" y1="773.0352" y2="773.0352"/><ellipse cx="85.4655" cy="828.8516" fill="#84BE84" rx="3" ry="3" style="stroke:#038048;stroke-width:1.0;"/><text fill="#000000" font-family="sans-serif" font-size="11" lengthAdjust="spacing" textLength="90" x="94.4655" y="832.062">getCandidatos()</text><ellipse cx="85.4655" cy="841.6563" fill="#84BE84" rx="3" ry="3" style="stroke:#038048;stroke-width:1.0;"/><text fill="#000000" font-family="sans-serif" font-size="11" lengthAdjust="spacing" textLength="100" x="94.4655" y="844.8667">getSigla_partido()</text><ellipse cx="85.4655" cy="854.4609" fill="#84BE84" rx="3" ry="3" style="stroke:#038048;stroke-width:1.0;"/><text fill="#000000" font-family="sans-serif" font-size="11" lengthAdjust="spacing" textLength="112" x="94.4655" y="857.6714">getVotos_legenda()</text><ellipse cx="85.4655" cy="867.2656" fill="#84BE84" rx="3" ry="3" style="stroke:#038048;stroke-width:1.0;"/><text fill="#000000" font-family="sans-serif" font-size="11" lengthAdjust="spacing" textLength="117" x="94.4655" y="870.4761">getNumero_partido()</text><line style="stroke:#A80036;stroke-width:1.0;stroke-dasharray:1.0,2.0;" x1="75.4655" x2="134.4655" y1="815.4492" y2="815.4492"/><text fill="#000000" font-family="sans-serif" font-size="11" lengthAdjust="spacing" textLength="43" x="134.4655" y="818.7573">Getters</text><line style="stroke:#A80036;stroke-width:1.0;stroke-dasharray:1.0,2.0;" x1="177.4655" x2="236.4655" y1="815.4492" y2="815.4492"/><ellipse cx="85.4655" cy="896.875" fill="#84BE84" rx="3" ry="3" style="stroke:#038048;stroke-width:1.0;"/><text fill="#000000" font-family="sans-serif" font-size="11" lengthAdjust="spacing" textLength="124" x="94.4655" y="900.0854">add_Votos_nominais()</text><ellipse cx="85.4655" cy="909.6797" fill="#84BE84" rx="3" ry="3" style="stroke:#038048;stroke-width:1.0;"/><text fill="#000000" font-family="sans-serif" font-size="11" lengthAdjust="spacing" textLength="130" x="94.4655" y="912.8901">add_CandidatoPartido()</text><line style="stroke:#A80036;stroke-width:1.0;stroke-dasharray:1.0,2.0;" x1="75.4655" x2="134.9655" y1="883.4727" y2="883.4727"/><text fill="#000000" font-family="sans-serif" font-size="11" lengthAdjust="spacing" textLength="42" x="134.9655" y="886.7808">Setters</text><line style="stroke:#A80036;stroke-width:1.0;stroke-dasharray:1.0,2.0;" x1="176.9655" x2="236.4655" y1="883.4727" y2="883.4727"/><ellipse cx="85.4655" cy="939.2891" fill="#84BE84" rx="3" ry="3" style="stroke:#038048;stroke-width:1.0;"/><text fill="#000000" font-family="sans-serif" font-size="11" lengthAdjust="spacing" textLength="72" x="94.4655" y="942.4995">compareTo()</text><line style="stroke:#A80036;stroke-width:1.0;stroke-dasharray:1.0,2.0;" x1="75.4655" x2="120.4655" y1="925.8867" y2="925.8867"/><text fill="#000000" font-family="sans-serif" font-size="11" lengthAdjust="spacing" textLength="71" x="120.4655" y="929.1948">Comparação</text><line style="stroke:#A80036;stroke-width:1.0;stroke-dasharray:1.0,2.0;" x1="191.4655" x2="236.4655" y1="925.8867" y2="925.8867"/><ellipse cx="85.4655" cy="968.8984" fill="#84BE84" rx="3" ry="3" style="stroke:#038048;stroke-width:1.0;"/><text fill="#000000" font-family="sans-serif" font-size="11" lengthAdjust="spacing" textLength="85" x="94.4655" y="972.1089">simplesString()</text><ellipse cx="85.4655" cy="981.7031" fill="#84BE84" rx="3" ry="3" style="stroke:#038048;stroke-width:1.0;"/><text fill="#000000" font-family="sans-serif" font-size="11" lengthAdjust="spacing" textLength="52" x="94.4655" y="984.9136">toString()</text><line style="stroke:#A80036;stroke-width:1.0;stroke-dasharray:1.0,2.0;" x1="75.4655" x2="126.4655" y1="955.4961" y2="955.4961"/><text fill="#000000" font-family="sans-serif" font-size="11" lengthAdjust="spacing" textLength="59" x="126.4655" y="958.8042">Impressão</text><line style="stroke:#A80036;stroke-width:1.0;stroke-dasharray:1.0,2.0;" x1="185.4655" x2="236.4655" y1="955.4961" y2="955.4961"/><!--MD5=[7a4729d26b999f6a4650b01106c103c5]
class Comparable--><rect fill="#FEFECE" filter="url(#f6c41olxoeelx)" height="48" id="Comparable" style="stroke:#A80036;stroke-width:1.5;" width="104" x="50.9655" y="382.5"/><ellipse cx="65.9655" cy="398.5" fill="#B4A7E5" rx="11" ry="11" style="stroke:#A80036;stroke-width:1.0;"/><path d="M66.9186,395.2813 L68.6374,395.2813 C69.028,395.2813 69.2155,395.25 69.3405,395.1719 C69.6061,395.0156 69.7467,394.7344 69.7467,394.4375 C69.7467,394.1719 69.6374,393.9063 69.403,393.7344 C69.2311,393.625 69.0905,393.5938 68.6374,393.5938 L63.4967,393.5938 C63.0592,393.5938 62.9342,393.6094 62.778,393.7031 C62.528,393.8594 62.3717,394.1563 62.3717,394.4375 C62.3717,394.7188 62.5124,394.9688 62.7311,395.1406 C62.8874,395.25 63.0749,395.2813 63.4967,395.2813 L65.2155,395.2813 L65.2155,401.7969 L63.4967,401.7969 C63.0592,401.7969 62.9342,401.8125 62.778,401.9219 C62.528,402.0781 62.3717,402.3594 62.3717,402.6563 C62.3717,402.9063 62.5124,403.1719 62.7311,403.3281 C62.8874,403.4531 63.0905,403.5 63.4967,403.5 L68.6374,403.5 C69.3874,403.5 69.7467,403.2188 69.7467,402.6563 C69.7467,402.375 69.6374,402.125 69.403,401.9531 C69.2311,401.8281 69.0905,401.7969 68.6374,401.7969 L66.9186,401.7969 L66.9186,395.2813 Z " fill="#000000"/><text fill="#000000" font-family="sans-serif" font-size="12" font-style="italic" lengthAdjust="spacing" textLength="72" x="79.9655" y="402.6543">Comparable</text><line style="stroke:#A80036;stroke-width:1.5;" x1="51.9655" x2="153.9655" y1="414.5" y2="414.5"/><line style="stroke:#A80036;stroke-width:1.5;" x1="51.9655" x2="153.9655" y1="422.5" y2="422.5"/><!--MD5=[f884fc27599339af8f59e71707b66ff3]
class Candidato--><rect codeLine="132" fill="#FEFECE" filter="url(#f6c41olxoeelx)" height="354.5078" id="Candidato" style="stroke:#A80036;stroke-width:1.5;" width="124" x="134.9655" y="1069"/><ellipse cx="164.3655" cy="1085" fill="#ADD1B2" rx="11" ry="11" style="stroke:#A80036;stroke-width:1.0;"/><path d="M166.7092,1080.6719 C165.7717,1080.2344 165.178,1080.0938 164.303,1080.0938 C161.678,1080.0938 159.678,1082.1719 159.678,1084.8906 L159.678,1086.0156 C159.678,1088.5938 161.7874,1090.4844 164.678,1090.4844 C165.8967,1090.4844 167.053,1090.1875 167.803,1089.6406 C168.3811,1089.2344 168.7092,1088.7813 168.7092,1088.3906 C168.7092,1087.9375 168.3186,1087.5469 167.8499,1087.5469 C167.6311,1087.5469 167.428,1087.625 167.2405,1087.8125 C166.7874,1088.2969 166.7874,1088.2969 166.5999,1088.3906 C166.178,1088.6563 165.4905,1088.7813 164.7249,1088.7813 C162.678,1088.7813 161.3811,1087.6875 161.3811,1085.9844 L161.3811,1084.8906 C161.3811,1083.1094 162.6311,1081.7969 164.3655,1081.7969 C164.9436,1081.7969 165.553,1081.9531 166.0217,1082.2031 C166.5061,1082.4844 166.678,1082.7031 166.7717,1083.1094 C166.8342,1083.5156 166.8655,1083.6406 167.0061,1083.7656 C167.1467,1083.9063 167.3811,1084.0156 167.5999,1084.0156 C167.8655,1084.0156 168.1311,1083.875 168.303,1083.6563 C168.4124,1083.5 168.4436,1083.3125 168.4436,1082.8906 L168.4436,1081.4688 C168.4436,1081.0313 168.428,1080.9063 168.3342,1080.75 C168.178,1080.4844 167.8967,1080.3438 167.5999,1080.3438 C167.303,1080.3438 167.0999,1080.4375 166.8811,1080.75 L166.7092,1080.6719 Z " fill="#000000"/><text fill="#000000" font-family="sans-serif" font-size="12" lengthAdjust="spacing" textLength="60" x="181.5655" y="1089.1543">Candidato</text><line style="stroke:#A80036;stroke-width:1.5;" x1="135.9655" x2="257.9655" y1="1101" y2="1101"/><rect fill="none" height="6" style="stroke:#C82930;stroke-width:1.0;" width="6" x="142.9655" y="1125.8047"/><text fill="#000000" font-family="sans-serif" font-size="11" lengthAdjust="spacing" textLength="50" x="154.9655" y="1132.0151">int idade</text><rect fill="none" height="6" style="stroke:#C82930;stroke-width:1.0;" width="6" x="142.9655" y="1138.6094"/><text fill="#000000" font-family="sans-serif" font-size="11" lengthAdjust="spacing" textLength="62" x="154.9655" y="1144.8198">int numero</text><rect fill="none" height="6" style="stroke:#C82930;stroke-width:1.0;" width="6" x="142.9655" y="1151.4141"/><text fill="#000000" font-family="sans-serif" font-size="11" lengthAdjust="spacing" textLength="88" x="154.9655" y="1157.6245">int num_partido</text><rect fill="none" height="6" style="stroke:#C82930;stroke-width:1.0;" width="6" x="142.9655" y="1164.2188"/><text fill="#000000" font-family="sans-serif" font-size="11" lengthAdjust="spacing" textLength="49" x="154.9655" y="1170.4292">int votos</text><rect fill="none" height="6" style="stroke:#C82930;stroke-width:1.0;" width="6" x="142.9655" y="1177.0234"/><text fill="#000000" font-family="sans-serif" font-size="11" lengthAdjust="spacing" textLength="56" x="154.9655" y="1183.2339">char sexo</text><rect fill="none" height="6" style="stroke:#C82930;stroke-width:1.0;" width="6" x="142.9655" y="1189.8281"/><text fill="#000000" font-family="sans-serif" font-size="11" lengthAdjust="spacing" textLength="87" x="154.9655" y="1196.0386">LocalDate nasc</text><rect fill="none" height="6" style="stroke:#C82930;stroke-width:1.0;" width="6" x="142.9655" y="1202.6328"/><text fill="#000000" font-family="sans-serif" font-size="11" lengthAdjust="spacing" textLength="53" x="154.9655" y="1208.8433">Str nome</text><rect fill="none" height="6" style="stroke:#C82930;stroke-width:1.0;" width="6" x="142.9655" y="1215.4375"/><text fill="#000000" font-family="sans-serif" font-size="11" lengthAdjust="spacing" textLength="84" x="154.9655" y="1221.6479">Str nome_urna</text><rect fill="none" height="6" style="stroke:#C82930;stroke-width:1.0;" width="6" x="142.9655" y="1228.2422"/><text fill="#000000" font-family="sans-serif" font-size="11" lengthAdjust="spacing" textLength="54" x="154.9655" y="1234.4526">Str status</text><line style="stroke:#A80036;stroke-width:1.5;" x1="135.9655" x2="171.9655" y1="1115.4023" y2="1115.4023"/><text fill="#000000" font-family="sans-serif" font-size="11" lengthAdjust="spacing" textLength="50" x="171.9655" y="1118.7104">Atributos</text><line style="stroke:#A80036;stroke-width:1.5;" x1="221.9655" x2="257.9655" y1="1115.4023" y2="1115.4023"/><ellipse cx="145.9655" cy="1260.8516" fill="#84BE84" rx="3" ry="3" style="stroke:#038048;stroke-width:1.0;"/><text fill="#000000" font-family="sans-serif" font-size="11" lengthAdjust="spacing" textLength="65" x="154.9655" y="1264.062">Candidato()</text><ellipse cx="145.9655" cy="1273.6563" fill="#84BE84" rx="3" ry="3" style="stroke:#038048;stroke-width:1.0;"/><text fill="#000000" font-family="sans-serif" font-size="11" lengthAdjust="spacing" textLength="54" x="154.9655" y="1276.8667">foiEleito()</text><line style="stroke:#A80036;stroke-width:1.5;" x1="135.9655" x2="172.9655" y1="1247.4492" y2="1247.4492"/><text fill="#000000" font-family="sans-serif" font-size="11" lengthAdjust="spacing" textLength="48" x="172.9655" y="1250.7573">Métodos</text><line style="stroke:#A80036;stroke-width:1.5;" x1="220.9655" x2="257.9655" y1="1247.4492" y2="1247.4492"/><ellipse cx="145.9655" cy="1303.2656" fill="#84BE84" rx="3" ry="3" style="stroke:#038048;stroke-width:1.0;"/><text fill="#000000" font-family="sans-serif" font-size="11" lengthAdjust="spacing" textLength="57" x="154.9655" y="1306.4761">getSexo()</text><ellipse cx="145.9655" cy="1316.0703" fill="#84BE84" rx="3" ry="3" style="stroke:#038048;stroke-width:1.0;"/><text fill="#000000" font-family="sans-serif" font-size="11" lengthAdjust="spacing" textLength="59" x="154.9655" y="1319.2808">getIdade()</text><ellipse cx="145.9655" cy="1328.875" fill="#84BE84" rx="3" ry="3" style="stroke:#038048;stroke-width:1.0;"/><text fill="#000000" font-family="sans-serif" font-size="11" lengthAdjust="spacing" textLength="59" x="154.9655" y="1332.0854">getVotos()</text><ellipse cx="145.9655" cy="1341.6797" fill="#84BE84" rx="3" ry="3" style="stroke:#038048;stroke-width:1.0;"/><text fill="#000000" font-family="sans-serif" font-size="11" lengthAdjust="spacing" textLength="98" x="154.9655" y="1344.8901">getNum_partido()</text><line style="stroke:#A80036;stroke-width:1.0;stroke-dasharray:1.0,2.0;" x1="135.9655" x2="175.4655" y1="1289.8633" y2="1289.8633"/><text fill="#000000" font-family="sans-serif" font-size="11" lengthAdjust="spacing" textLength="43" x="175.4655" y="1293.1714">Getters</text><line style="stroke:#A80036;stroke-width:1.0;stroke-dasharray:1.0,2.0;" x1="218.4655" x2="257.9655" y1="1289.8633" y2="1289.8633"/><ellipse cx="145.9655" cy="1371.2891" fill="#84BE84" rx="3" ry="3" style="stroke:#038048;stroke-width:1.0;"/><text fill="#000000" font-family="sans-serif" font-size="11" lengthAdjust="spacing" textLength="72" x="154.9655" y="1374.4995">compareTo()</text><line style="stroke:#A80036;stroke-width:1.0;stroke-dasharray:1.0,2.0;" x1="135.9655" x2="161.4655" y1="1357.8867" y2="1357.8867"/><text fill="#000000" font-family="sans-serif" font-size="11" lengthAdjust="spacing" textLength="71" x="161.4655" y="1361.1948">Comparação</text><line style="stroke:#A80036;stroke-width:1.0;stroke-dasharray:1.0,2.0;" x1="232.4655" x2="257.9655" y1="1357.8867" y2="1357.8867"/><ellipse cx="145.9655" cy="1400.8984" fill="#84BE84" rx="3" ry="3" style="stroke:#038048;stroke-width:1.0;"/><text fill="#000000" font-family="sans-serif" font-size="11" lengthAdjust="spacing" textLength="52" x="154.9655" y="1404.1089">toString()</text><ellipse cx="145.9655" cy="1413.7031" fill="#84BE84" rx="3" ry="3" style="stroke:#038048;stroke-width:1.0;"/><text fill="#000000" font-family="sans-serif" font-size="11" lengthAdjust="spacing" textLength="79" x="154.9655" y="1416.9136">simpleString()</text><line style="stroke:#A80036;stroke-width:1.0;stroke-dasharray:1.0,2.0;" x1="135.9655" x2="167.4655" y1="1387.4961" y2="1387.4961"/><text fill="#000000" font-family="sans-serif" font-size="11" lengthAdjust="spacing" textLength="59" x="167.4655" y="1390.8042">Impressão</text><line style="stroke:#A80036;stroke-width:1.0;stroke-dasharray:1.0,2.0;" x1="226.4655" x2="257.9655" y1="1387.4961" y2="1387.4961"/><!--MD5=[8bbe5b6b77c632e396eb49455175abdf]
class Leitor--><rect codeLine="91" fill="#FEFECE" filter="url(#f6c41olxoeelx)" height="120.8281" id="Leitor" style="stroke:#A80036;stroke-width:1.5;" width="142" x="551.9655" y="346"/><ellipse cx="601.7155" cy="362" fill="#ADD1B2" rx="11" ry="11" style="stroke:#A80036;stroke-width:1.0;"/><path d="M604.0592,357.6719 C603.1217,357.2344 602.528,357.0938 601.653,357.0938 C599.028,357.0938 597.028,359.1719 597.028,361.8906 L597.028,363.0156 C597.028,365.5938 599.1374,367.4844 602.028,367.4844 C603.2467,367.4844 604.403,367.1875 605.153,366.6406 C605.7311,366.2344 606.0592,365.7813 606.0592,365.3906 C606.0592,364.9375 605.6686,364.5469 605.1999,364.5469 C604.9811,364.5469 604.778,364.625 604.5905,364.8125 C604.1374,365.2969 604.1374,365.2969 603.9499,365.3906 C603.528,365.6563 602.8405,365.7813 602.0749,365.7813 C600.028,365.7813 598.7311,364.6875 598.7311,362.9844 L598.7311,361.8906 C598.7311,360.1094 599.9811,358.7969 601.7155,358.7969 C602.2936,358.7969 602.903,358.9531 603.3717,359.2031 C603.8561,359.4844 604.028,359.7031 604.1217,360.1094 C604.1842,360.5156 604.2155,360.6406 604.3561,360.7656 C604.4967,360.9063 604.7311,361.0156 604.9499,361.0156 C605.2155,361.0156 605.4811,360.875 605.653,360.6563 C605.7624,360.5 605.7936,360.3125 605.7936,359.8906 L605.7936,358.4688 C605.7936,358.0313 605.778,357.9063 605.6842,357.75 C605.528,357.4844 605.2467,357.3438 604.9499,357.3438 C604.653,357.3438 604.4499,357.4375 604.2311,357.75 L604.0592,357.6719 Z " fill="#000000"/><text fill="#000000" font-family="sans-serif" font-size="12" lengthAdjust="spacing" textLength="34" x="622.2155" y="366.1543">Leitor</text><line style="stroke:#A80036;stroke-width:1.5;" x1="552.9655" x2="692.9655" y1="378" y2="378"/><ellipse cx="562.9655" cy="405.8047" fill="#84BE84" rx="3" ry="3" style="stroke:#038048;stroke-width:1.0;"/><text fill="#000000" font-family="sans-serif" font-size="11" lengthAdjust="spacing" textLength="46" x="571.9655" y="409.0151">leData()</text><ellipse cx="562.9655" cy="418.6094" fill="#84BE84" rx="3" ry="3" style="stroke:#038048;stroke-width:1.0;"/><text fill="#000000" font-family="sans-serif" font-size="11" lengthAdjust="spacing" textLength="57" x="571.9655" y="421.8198">lePartido()</text><ellipse cx="562.9655" cy="431.4141" fill="#84BE84" rx="3" ry="3" style="stroke:#038048;stroke-width:1.0;"/><text fill="#000000" font-family="sans-serif" font-size="11" lengthAdjust="spacing" textLength="76" x="571.9655" y="434.6245">leCandidato()</text><ellipse cx="562.9655" cy="444.2188" fill="#84BE84" rx="3" ry="3" style="stroke:#038048;stroke-width:1.0;"/><text fill="#000000" font-family="sans-serif" font-size="11" lengthAdjust="spacing" textLength="97" x="571.9655" y="447.4292">leTodosPartidos()</text><ellipse cx="562.9655" cy="457.0234" fill="#84BE84" rx="3" ry="3" style="stroke:#038048;stroke-width:1.0;"/><text fill="#000000" font-family="sans-serif" font-size="11" lengthAdjust="spacing" textLength="116" x="571.9655" y="460.2339">leTodosCandidatos()</text><line style="stroke:#A80036;stroke-width:1.5;" x1="552.9655" x2="598.9655" y1="392.4023" y2="392.4023"/><text fill="#000000" font-family="sans-serif" font-size="11" lengthAdjust="spacing" textLength="48" x="598.9655" y="395.7104">Métodos</text><line style="stroke:#A80036;stroke-width:1.5;" x1="646.9655" x2="692.9655" y1="392.4023" y2="392.4023"/><!--MD5=[d93caa29388ee3217820eab7bd878454]
class Estatisticas--><rect codeLine="104" fill="#FEFECE" filter="url(#f6c41olxoeelx)" height="184.8516" id="Estatisticas" style="stroke:#A80036;stroke-width:1.5;" width="251" x="750.4655" y="314"/><ellipse cx="838.2155" cy="330" fill="#ADD1B2" rx="11" ry="11" style="stroke:#A80036;stroke-width:1.0;"/><path d="M840.5592,325.6719 C839.6217,325.2344 839.028,325.0938 838.153,325.0938 C835.528,325.0938 833.528,327.1719 833.528,329.8906 L833.528,331.0156 C833.528,333.5938 835.6374,335.4844 838.528,335.4844 C839.7467,335.4844 840.903,335.1875 841.653,334.6406 C842.2311,334.2344 842.5592,333.7813 842.5592,333.3906 C842.5592,332.9375 842.1686,332.5469 841.6999,332.5469 C841.4811,332.5469 841.278,332.625 841.0905,332.8125 C840.6374,333.2969 840.6374,333.2969 840.4499,333.3906 C840.028,333.6563 839.3405,333.7813 838.5749,333.7813 C836.528,333.7813 835.2311,332.6875 835.2311,330.9844 L835.2311,329.8906 C835.2311,328.1094 836.4811,326.7969 838.2155,326.7969 C838.7936,326.7969 839.403,326.9531 839.8717,327.2031 C840.3561,327.4844 840.528,327.7031 840.6217,328.1094 C840.6842,328.5156 840.7155,328.6406 840.8561,328.7656 C840.9967,328.9063 841.2311,329.0156 841.4499,329.0156 C841.7155,329.0156 841.9811,328.875 842.153,328.6563 C842.2624,328.5 842.2936,328.3125 842.2936,327.8906 L842.2936,326.4688 C842.2936,326.0313 842.278,325.9063 842.1842,325.75 C842.028,325.4844 841.7467,325.3438 841.4499,325.3438 C841.153,325.3438 840.9499,325.4375 840.7311,325.75 L840.5592,325.6719 Z " fill="#000000"/><text fill="#000000" font-family="sans-serif" font-size="12" lengthAdjust="spacing" textLength="67" x="858.7155" y="334.1543">Estatisticas</text><line style="stroke:#A80036;stroke-width:1.5;" x1="751.4655" x2="1000.4655" y1="346" y2="346"/><ellipse cx="761.4655" cy="373.8047" fill="#84BE84" rx="3" ry="3" style="stroke:#038048;stroke-width:1.0;"/><text fill="#000000" font-family="sans-serif" font-size="11" lengthAdjust="spacing" textLength="85" x="770.4655" y="377.0151">imprimeSexo()</text><ellipse cx="761.4655" cy="386.6094" fill="#84BE84" rx="3" ry="3" style="stroke:#038048;stroke-width:1.0;"/><text fill="#000000" font-family="sans-serif" font-size="11" lengthAdjust="spacing" textLength="87" x="770.4655" y="389.8198">imprimeIdade()</text><ellipse cx="761.4655" cy="399.4141" fill="#84BE84" rx="3" ry="3" style="stroke:#038048;stroke-width:1.0;"/><text fill="#000000" font-family="sans-serif" font-size="11" lengthAdjust="spacing" textLength="93" x="770.4655" y="402.6245">imprimeEleitos()</text><ellipse cx="761.4655" cy="412.2188" fill="#84BE84" rx="3" ry="3" style="stroke:#038048;stroke-width:1.0;"/><text fill="#000000" font-family="sans-serif" font-size="11" lengthAdjust="spacing" textLength="116" x="770.4655" y="415.4292">imprimeNumVagas()</text><ellipse cx="761.4655" cy="425.0234" fill="#84BE84" rx="3" ry="3" style="stroke:#038048;stroke-width:1.0;"/><text fill="#000000" font-family="sans-serif" font-size="11" lengthAdjust="spacing" textLength="115" x="770.4655" y="428.2339">imprimeTotalVotos()</text><ellipse cx="761.4655" cy="437.8281" fill="#84BE84" rx="3" ry="3" style="stroke:#038048;stroke-width:1.0;"/><text fill="#000000" font-family="sans-serif" font-size="11" lengthAdjust="spacing" textLength="126" x="770.4655" y="441.0386">imprimeMaisVotados()</text><ellipse cx="761.4655" cy="450.6328" fill="#84BE84" rx="3" ry="3" style="stroke:#038048;stroke-width:1.0;"/><text fill="#000000" font-family="sans-serif" font-size="11" lengthAdjust="spacing" textLength="126" x="770.4655" y="453.8433">imprimePrejudicados()</text><ellipse cx="761.4655" cy="463.4375" fill="#84BE84" rx="3" ry="3" style="stroke:#038048;stroke-width:1.0;"/><text fill="#000000" font-family="sans-serif" font-size="11" lengthAdjust="spacing" textLength="129" x="770.4655" y="466.6479">imprimeBeneficiados()</text><ellipse cx="761.4655" cy="476.2422" fill="#84BE84" rx="3" ry="3" style="stroke:#038048;stroke-width:1.0;"/><text fill="#000000" font-family="sans-serif" font-size="11" lengthAdjust="spacing" textLength="170" x="770.4655" y="479.4526">imprimePartidosMaisVotados()</text><ellipse cx="761.4655" cy="489.0469" fill="#84BE84" rx="3" ry="3" style="stroke:#038048;stroke-width:1.0;"/><text fill="#000000" font-family="sans-serif" font-size="11" lengthAdjust="spacing" textLength="225" x="770.4655" y="492.2573">imprimeMelhorPiorCandidatoPorPartido()</text><line style="stroke:#A80036;stroke-width:1.5;" x1="751.4655" x2="851.9655" y1="360.4023" y2="360.4023"/><text fill="#000000" font-family="sans-serif" font-size="11" lengthAdjust="spacing" textLength="48" x="851.9655" y="363.7104">Métodos</text><line style="stroke:#A80036;stroke-width:1.5;" x1="899.9655" x2="1000.4655" y1="360.4023" y2="360.4023"/><!--MD5=[6e1a9cfcf7bdabcce8903bd6980260d9]
entity ##634352--><!--MD5=[2e4b29cdb8af1e43ec2bb45cc9890514]
reverse link Comparable to Partido--><path d="M108.0605,450.65 C112.7885,490.276 120.1085,550.625 126.9655,603 C128.2465,612.784 129.5795,622.824 130.9405,632.956 " fill="none" id="Comparable-backto-Partido" style="stroke:#A80036;stroke-width:1.0;stroke-dasharray:7.0,7.0;"/><polygon fill="none" points="101.098,451.37,105.6905,430.69,115.0005,449.72,101.098,451.37" style="stroke:#A80036;stroke-width:1.0;"/><!--MD5=[e9cd0fae588995789ff0abf10b844beb]
reverse link Comparable to Candidato--><path d="M90.2659,450.02 C63.1383,547.577 6,794.294 56.9655,992 C72.308,1051.517 104.9233,1111.999 134.8155,1158.953 " fill="none" id="Comparable-backto-Candidato" style="stroke:#A80036;stroke-width:1.0;stroke-dasharray:7.0,7.0;"/><polygon fill="none" points="83.6112,447.83,95.8462,430.53,97.0704,451.69,83.6112,447.83" style="stroke:#A80036;stroke-width:1.0;"/><!--MD5=[e394ec65a89ded79b3c8a5df55c2a67b]
link Main to Eleição--><path codeLine="120" d="M595.5355,111.16 C588.9295,119.1 581.8025,127.44 574.9655,135 C517.9875,198.02 450.7865,266.07 398.0585,318.15 " fill="none" id="Main-Eleição" style="stroke:#A80036;stroke-width:1.0;"/><!--MD5=[f4d90d0e09d117875e629d039398730a]
link Main to Leitor--><path codeLine="121" d="M622.9655,111.23 C622.9655,166.77 622.9655,277.22 622.9655,345.88 " fill="none" id="Main-Leitor" style="stroke:#A80036;stroke-width:1.0;"/><!--MD5=[0ca81994e366164409ca53cb8248a506]
link Main to Estatisticas--><path codeLine="122" d="M649.3245,111.23 C685.9015,158.72 753.3955,246.35 805.2515,313.68 " fill="none" id="Main-Estatisticas" style="stroke:#A80036;stroke-width:1.0;"/><!--MD5=[482b137b0827c8ac86e84d3fc005bf02]
link Eleição to Candidato--><path codeLine="125" d="M304.9165,556.012 C300.2075,684.711 288.2565,875.439 257.9655,1039 C256.4575,1047.143 254.7535,1055.422 252.8995,1063.754 " fill="none" id="Eleição-to-Candidato" style="stroke:#A80036;stroke-width:1.0;"/><polygon fill="#A80036" points="251.7255,1068.948,257.612,1061.0519,252.8283,1064.0711,249.809,1059.2874,251.7255,1068.948" style="stroke:#A80036;stroke-width:1.0;"/><text fill="#000000" font-family="sans-serif" font-size="13" lengthAdjust="spacing" textLength="42" x="301.9655" y="817.0669">Eleitos</text><text fill="#000000" font-family="sans-serif" font-size="13" lengthAdjust="spacing" textLength="50" x="202.981" y="1058.2212">TreeSet</text><!--MD5=[482b137b0827c8ac86e84d3fc005bf02]
link Eleição to Candidato--><path codeLine="126" d="M347.5245,556.253 C372.7535,676.104 393.7805,847.8 352.9655,992 C335.0695,1055.229 296.4605,1118.19 262.1325,1165.55 " fill="none" id="Eleição-to-Candidato-1" style="stroke:#A80036;stroke-width:1.0;"/><polygon fill="#A80036" points="259.0375,1169.795,267.572,1164.8795,261.9833,1165.7549,261.1078,1160.1662,259.0375,1169.795" style="stroke:#A80036;stroke-width:1.0;"/><text fill="#000000" font-family="sans-serif" font-size="13" lengthAdjust="spacing" textLength="72" x="375.9655" y="817.0669">Candidatos</text><text fill="#000000" font-family="sans-serif" font-size="13" lengthAdjust="spacing" textLength="50" x="267.0644" y="1159.1281">TreeSet</text><!--MD5=[23f202ad7b136b80fef75b338c30c5a7]
link Eleição to Partido--><path codeLine="127" d="M217.8695,538.831 C209.5945,554.303 202.0515,570.212 195.9655,586 C190.7935,599.416 186.2845,613.541 182.3545,627.908 " fill="none" id="Eleição-to-Partido" style="stroke:#A80036;stroke-width:1.0;"/><polygon fill="#A80036" points="181.0435,632.788,187.2415,625.1339,182.3407,627.9592,179.5154,623.0584,181.0435,632.788" style="stroke:#A80036;stroke-width:1.0;"/><text fill="#000000" font-family="sans-serif" font-size="13" lengthAdjust="spacing" textLength="52" x="196.9655" y="599.0669">Partidos</text><text fill="#000000" font-family="sans-serif" font-size="13" lengthAdjust="spacing" textLength="50" x="131.0468" y="621.9701">TreeSet</text><!--MD5=[4a977030a1feae35667042cbce4128ae]
link Partido to Eleição--><!--MD5=[2b4aa8cdb10d5357e8a20c10fe42a04b]
link Partido to Candidato--><path codeLine="128" d="M172.9085,992.017 C175.1615,1015.762 177.4745,1040.13 179.7325,1063.926 " fill="none" id="Partido-to-Candidato" style="stroke:#A80036;stroke-width:1.0;"/><polygon fill="#A80036" points="180.2135,1068.995,183.347,1059.6579,179.742,1064.0173,175.3826,1060.4123,180.2135,1068.995" style="stroke:#A80036;stroke-width:1.0;"/><text fill="#000000" font-family="sans-serif" font-size="13" lengthAdjust="spacing" textLength="72" x="176.9655" y="1035.0669">Candidatos</text><text fill="#000000" font-family="sans-serif" font-size="13" lengthAdjust="spacing" textLength="50" x="128.3216" y="1057.693">TreeSet</text><!--MD5=[dc5ce00538e7ff722f187dfb42ae3638]
link Candidato to Partido--><!--MD5=[f6ce61dd456df37ccfdeed0818298958]
@startuml
package "Testador"{

Class Main{
__Métodos__
+ main()
}

}

package "Eleições"{

Class Eleição{
__Atribuitos__
- int total_votos_legenda
- int total_votos_nominais
- LocalDate data
__Métodos__
+ Eleicao()
+ qtdEleitos()
.. Getters ..
+ getEleitos()
+ getPartidos()
+ getCandidatos()
+ get_total_votos_legenda()
+ get_total_votos_nominais()
.. Setters ..
+ adicionaEleito()
+ addPartidoEleicao()
+ addCandidatoEleicao()
+ add_total_votos_legenda()
+ add_total_votos_nominais()
}

Class Partido implements Comparable{
__Atributos__
- int numero_partido
- int qtdCandidatosEleitos
- int votos_legenda
- int votos_nominais
- Str nome_partido
- Str sigla_partido
__Métodos__
+ Partido()
+ votosTotais()
.. Getters ..
+ getCandidatos()
+ getSigla_partido()
+ getVotos_legenda()
+ getNumero_partido()
.. Setters ..
+ add_Votos_nominais()
+ add_CandidatoPartido()
.. Comparação ..
+ compareTo()
.. Impressão ..
+ simplesString()
+ toString()
}


Class Candidato implements Comparable{
__Atributos__
- int idade
- int numero
- int num_partido
- int votos
- char sexo
- LocalDate nasc
- Str nome
- Str nome_urna
- Str status
__Métodos__
+ Candidato()
+ foiEleito()
.. Getters ..
+ getSexo()
+ getIdade()
+ getVotos()
+ getNum_partido()
.. Comparação ..
+ compareTo()
.. Impressão ..
+ toString()
+ simpleString()
}

}

package "Entrada"{

Class Leitor{
__Métodos__
+ leData()
+ lePartido()
+ leCandidato()
+ leTodosPartidos()
+ leTodosCandidatos()
}

}

package "Saida"{

Class Estatisticas{
__Métodos__
+ imprimeSexo()
+ imprimeIdade()
+ imprimeEleitos()
+ imprimeNumVagas()
+ imprimeTotalVotos()
+ imprimeMaisVotados()
+ imprimePrejudicados()
+ imprimeBeneficiados()
+ imprimePartidosMaisVotados()
+ imprimeMelhorPiorCandidatoPorPartido()
}

}

Main - - - Eleição
Main - - - Leitor
Main - - - Estatisticas


Eleição - -> "TreeSet" Candidato : Eleitos
Eleição - -> "TreeSet" Candidato : Candidatos
Eleição - -> "TreeSet" Partido : Partidos
Partido - -> "TreeSet" Candidato : Candidatos

together {
 class Partido
 class Candidato
 class Eleição
}

Candidato -[hidden]- Partido
Partido -[hidden]- Eleição
@enduml

PlantUML version 1.2021.4(Sun Apr 04 08:49:39 UTC 2021)
(GPL source distribution)
Java Runtime: Java(TM) SE Runtime Environment
JVM: Java HotSpot(TM) 64-Bit Server VM
Default Encoding: UTF-8
Language: en
Country: US
--></g></svg>